<svg width="39" height="39" viewBox="0 0 39 39" fill="none" xmlns="http://www.w3.org/2000/svg">
<path d="M29.0818 5.90092C29.489 1.59628 27.453 0.491029 25.2426 0.0838325C23.0321 -0.323364 20.0652 0.723699 19.3672 3.86493C18.6691 0.723699 15.7024 -0.323364 13.4919 0.0838325C11.2814 0.491029 9.47813 1.59628 9.88533 5.90092C10.1804 9.01993 15.5026 14.7424 18.5528 17.7096C11.6654 12.5906 6.34467 11.9998 4.54525 12.3443C0.300613 13.1682 -0.185268 15.4333 0.0477785 17.6689C0.280825 19.9045 2.12244 22.4553 5.333 22.2387C2.51636 23.7947 2.3489 26.9363 3.36325 28.9421C4.3776 30.9479 5.94675 32.3661 9.9616 30.7608C13.0535 29.5246 17.299 22.098 19.1377 18.5178C18.4978 22.0856 18.3434 31.1821 22.8575 39.0003H25.5915C23.7107 36.499 19.8657 28.988 19.54 18.8895C21.4147 22.5185 25.5926 29.7752 28.6457 30.9959C32.6605 32.6011 34.2297 31.1829 35.244 29.1771C36.2584 27.1713 36.0909 24.0297 33.2743 22.4738C36.4848 22.6904 38.3264 20.1395 38.5595 17.904C38.7925 15.6684 38.3067 13.4033 34.062 12.5794C30.8601 11.9578 23.4408 15.9296 19.8602 18.0005C22.8518 15.1562 28.7741 9.1544 29.0818 5.90092Z" fill="white"/>
</svg>
