<svg width="18" height="8" viewBox="0 0 18 8" fill="none" xmlns="http://www.w3.org/2000/svg">
<path d="M0.0119035 0.434309C1.84474 0.383397 3.24847 0.61385 4.31295 1.00078M17.6652 0.434309C15.8318 0.383381 14.2201 0.613993 13.1555 1.00114M4.31295 1.00078C6.76369 1.89161 7.41628 3.61185 7.36744 4.63747C7.36744 6.26241 6.05016 7.57968 4.42522 7.57968H4.2176C2.59267 7.57968 1.27539 6.26241 1.27539 4.63747C1.22665 3.61393 1.87525 1.89522 4.31295 1.00078ZM4.31295 1.00078C5.3789 0.609661 6.78695 0.376153 8.62838 0.427304H8.83854C10.6805 0.376138 12.0891 0.609805 13.1555 1.00114M13.1555 1.00114C15.5932 1.89568 16.2428 3.61407 16.1941 4.63747C16.1941 6.26241 14.8768 7.57968 13.2519 7.57968H13.0442C11.4193 7.57968 10.102 6.26241 10.102 4.63747C10.0532 3.61198 10.7056 1.89207 13.1555 1.00114Z" stroke="white" stroke-width="0.827586"/>
</svg>
