<svg width="16" height="17" viewBox="0 0 16 17" fill="none" xmlns="http://www.w3.org/2000/svg">
<path d="M12.0526 2.44557C12.2214 0.661557 11.3776 0.203501 10.4615 0.0347434C9.54536 -0.134014 8.3158 0.299928 8.0265 1.60177C7.7372 0.299928 6.50768 -0.134014 5.59157 0.0347434C4.67546 0.203501 3.9281 0.661557 4.09685 2.44557C4.21913 3.7382 6.42488 6.1098 7.68899 7.33953C4.83457 5.218 2.62947 4.97317 1.88372 5.11594C0.124586 5.4574 -0.0767819 6.39615 0.0198012 7.32266C0.116384 8.24916 0.87962 9.30633 2.2102 9.21655C1.04287 9.86142 0.973473 11.1634 1.39386 11.9947C1.81424 12.826 2.46456 13.4137 4.12847 12.7485C5.40987 12.2361 7.16937 9.15824 7.93138 7.67449C7.66619 9.15312 7.60221 12.9231 9.47301 16.1632H10.6061C9.82659 15.1266 8.23311 12.0137 8.0981 7.82853C8.87504 9.33253 10.6065 12.34 11.8718 12.8459C13.5358 13.5111 14.1861 12.9234 14.6065 12.0921C15.0268 11.2608 14.9574 9.95884 13.7901 9.31397C15.1207 9.40375 15.8839 8.34658 15.9805 7.42008C16.0771 6.49357 15.8757 5.55483 14.1166 5.21336C12.7896 4.95578 9.71477 6.60181 8.23082 7.46007C9.47064 6.28132 11.9251 3.79393 12.0526 2.44557Z" fill="#00A842"/>
</svg>
