<svg width="80" height="76" viewBox="0 0 80 76" fill="none" xmlns="http://www.w3.org/2000/svg">
<path d="M73.1444 37.2686C73.1444 55.4594 58.3989 70.2076 40.2061 70.2076C22.0154 70.2076 7.26855 55.4601 7.26855 37.2686V33.7185H73.1437V37.2686H73.1444Z" fill="#FFAA17"/>
<path d="M7.26855 34.3878C7.26855 52.5772 22.0147 67.3254 40.2061 67.3254C58.3982 67.3254 73.1444 52.5779 73.1444 34.3878V33.7185H7.26923V34.3878H7.26855Z" fill="url(#paint0_linear_2172_22821)"/>
<path d="M73.1444 33.7185C73.1444 51.9092 58.3989 66.6567 40.2061 66.6567C22.0154 66.6567 7.26855 51.9099 7.26855 33.7185C7.26855 15.5284 22.0147 0.780212 40.2061 0.780212C58.3982 0.780212 73.1444 15.5284 73.1444 33.7185Z" fill="#FFDA33"/>
<g opacity="0.2">
<path d="M40.2059 0.780151C37.6073 0.780151 35.0847 1.09061 32.6602 1.65979L67.2844 52.4649C70.9757 47.1434 73.1442 40.6863 73.1442 33.7191C73.1442 31.7112 72.9547 29.749 72.6106 27.8398L57.5231 5.70181C52.4912 2.58378 46.5603 0.780151 40.2059 0.780151Z" fill="white"/>
<path d="M19.1596 8.3844C12.4377 13.974 7.98378 22.1897 7.35547 31.4558L30.312 65.1413C33.4347 66.1251 36.7584 66.6567 40.207 66.6567C45.968 66.6567 51.3815 65.1729 56.0928 62.575L19.1596 8.3844Z" fill="white"/>
</g>
<path d="M40.2067 58.8335C54.0773 58.8335 65.3217 47.5891 65.3217 33.7185C65.3217 19.8479 54.0773 8.60361 40.2067 8.60361C26.3361 8.60361 15.0918 19.8479 15.0918 33.7185C15.0918 47.5891 26.3361 58.8335 40.2067 58.8335Z" fill="#FF8800"/>
<path d="M63.7772 33.7186C63.7772 46.7364 53.2249 57.29 40.2064 57.29C27.188 57.29 16.6357 46.7364 16.6357 33.7186C16.6357 20.7001 27.188 10.1479 40.2064 10.1479C53.2249 10.1479 63.7772 20.7001 63.7772 33.7186Z" fill="#FFAA17"/>
<path d="M66.7247 54.2023C66.1305 53.9547 65.4418 54.2387 65.1942 54.8334L59.3789 68.7995C59.1327 69.3937 59.4157 70.0829 60.0104 70.3301L71.2456 75.0068C72.7463 75.6328 73.7676 74.8301 73.5154 73.2245L73.1783 71.0806L72.8412 68.9399C72.8412 68.939 72.8412 68.939 72.8412 68.9381L72.3823 66.0177L74.7766 64.2868C74.7766 64.2868 74.7771 64.2854 74.7789 64.2854L76.5353 63.0169L78.2957 61.7449C79.6114 60.7926 79.4606 59.5033 77.96 58.8786L66.7247 54.2023Z" fill="#B52020"/>
<path d="M12.4666 54.2023C13.0609 53.9547 13.7501 54.2387 13.9972 54.8334L19.812 68.7995C20.0592 69.3937 19.7761 70.0829 19.181 70.3301L7.94618 75.0068C6.44603 75.6328 5.42472 74.8301 5.67641 73.2245L6.01352 71.0806L6.35017 68.9399C6.35017 68.939 6.35017 68.939 6.35017 68.9381L6.80993 66.0177L4.41523 64.2868C4.41523 64.2868 4.41478 64.2854 4.41251 64.2854L2.65703 63.0169L0.896102 61.7449C-0.420052 60.7926 -0.268309 59.5033 1.2323 58.8786L12.4666 54.2023Z" fill="#B52020"/>
<path d="M68.0124 67.2983C67.3295 68.7743 65.515 69.4063 63.9535 68.7889C48.3091 62.5861 30.8798 62.5861 15.2363 68.7889C13.6739 69.4059 11.8598 68.7757 11.1774 67.2983C9.59279 63.7864 8.00677 60.2768 6.42212 56.7654C5.74064 55.2902 6.79284 53.3408 8.79728 52.5475C28.5768 44.7056 50.613 44.7056 70.3916 52.5475C72.3956 53.3408 73.4496 55.2902 72.7677 56.7654C71.1826 60.2768 69.5975 63.786 68.0124 67.2983Z" fill="#E63535"/>
<path d="M45.992 54.2029V52.9083H43.2487L42.1476 52.6137C42.1476 52.6137 41.3697 51.4143 41.369 51.4143L40.3986 49.9186C39.9703 49.2596 39.2711 49.2596 38.843 49.9186L37.8721 51.4143L37.0943 52.6137L35.9927 52.9083H33.2451V54.2029H33.2489C33.2315 54.4302 33.3139 54.6811 33.5101 54.9237L34.6333 56.3083L35.533 57.4183L35.3637 60.6264C35.323 61.4107 35.8893 61.8226 36.6228 61.5416L39.6211 60.3889L42.6192 61.5416C43.353 61.8226 43.9186 61.4107 43.8774 60.6264L43.7088 57.4183L44.6072 56.3083L45.7306 54.9237C45.9269 54.6811 46.0092 54.4302 45.992 54.2029Z" fill="#FFAA17"/>
<path d="M45.2496 52.0487L42.1476 51.2184C42.1476 51.2184 41.3697 50.019 41.369 50.019L40.3986 48.5235C39.9703 47.8643 39.2711 47.8643 38.843 48.5235L37.872 50.019L37.0943 51.2184L33.9914 52.0487C33.2329 52.2517 33.0162 52.9173 33.5102 53.5282L34.6334 54.913L35.5331 56.023L35.3639 59.2311C35.3232 60.0156 35.8895 60.4273 36.6229 60.1463L39.6212 58.9936L42.6193 60.1463C43.3531 60.4273 43.9188 60.0156 43.8775 59.2311L43.709 56.023L44.6074 54.913L45.7308 53.5282C46.2248 52.9173 46.0088 52.2515 45.2496 52.0487Z" fill="#FFDA33"/>
<path opacity="0.2" d="M36.3115 51.428L33.9914 52.0488C33.7227 52.1206 33.5236 52.2515 33.3984 52.4165L38.9788 59.2407L39.6212 58.9938L42.6193 60.1465C42.9369 60.2682 43.223 60.2597 43.4418 60.1476L36.3115 51.428Z" fill="white"/>
<path opacity="0.2" d="M44.6133 54.9052L39.1337 48.2044C39.0287 48.2839 38.9296 48.3894 38.8426 48.5237L37.9033 49.9702L43.7672 57.1411L43.7085 56.023L44.6069 54.913L44.6133 54.9052Z" fill="white"/>
<path d="M33.3589 55.6082L33.0986 54.7876L31.3598 55.3394L30.6026 55.3741C30.6026 55.3741 29.8682 54.7706 29.8677 54.7706L28.9518 54.0179C28.5475 53.6865 28.1046 53.8272 27.9659 54.3309L27.6514 55.4741L27.3997 56.3907L26.761 56.799L25.0195 57.352L25.28 58.1727L25.2825 58.1719C25.3172 58.3193 25.42 58.4618 25.593 58.5763L26.5834 59.2276L27.3768 59.7504L27.915 61.8173C28.0471 62.3228 28.489 62.4697 28.8971 62.1443L30.5656 60.8104L32.6976 60.9378C33.2193 60.9684 33.495 60.5934 33.3111 60.1046L32.5587 58.1053L32.9049 57.2211L33.3382 56.1174C33.4137 55.9244 33.4157 55.7487 33.3589 55.6082Z" fill="#FFAA17"/>
<path d="M32.455 54.3923L30.3219 54.49C30.3219 54.49 29.5878 53.8863 29.5872 53.8865L28.6711 53.1336C28.2669 52.8022 27.8239 52.9431 27.6854 53.4466L27.371 54.59L27.1192 55.5066L25.3195 56.6573C24.8794 56.9384 24.8762 57.404 25.3122 57.692L26.3028 58.3433L27.096 58.8659L27.6343 60.9331C27.7663 61.4385 28.2082 61.5857 28.6163 61.26L30.2848 59.9261L32.4168 60.0538C32.9385 60.0841 33.2143 59.7092 33.0303 59.2203L32.2779 57.2212L32.6241 56.3369L33.0576 55.2333C33.2477 54.7466 32.9769 54.3682 32.455 54.3923Z" fill="#FFDA33"/>
<path opacity="0.2" d="M26.665 55.7972L25.3195 56.6574C25.1636 56.7569 25.0636 56.8799 25.0176 57.0095L29.9275 60.212L30.2848 59.9264L32.4168 60.054C32.6426 60.0669 32.8222 60.004 32.9385 59.8891L26.665 55.7972Z" fill="white"/>
<path opacity="0.2" d="M32.6265 56.3307L27.8054 53.1862C27.7547 53.2576 27.7133 53.3444 27.6851 53.4469L27.3809 54.5528L32.54 57.9181L32.2776 57.2214L32.6238 56.3371L32.6265 56.3307Z" fill="white"/>
<path d="M46.0142 55.5869L46.2747 54.7661L48.0135 55.3182L48.7705 55.3527C48.7705 55.3527 49.5049 54.7492 49.5054 54.7494L50.4213 53.9964C50.8255 53.6651 51.2687 53.8058 51.4072 54.3096L51.7217 55.4526L51.9734 56.3695L52.6122 56.7778L54.3537 57.3306L54.0932 58.1513L54.0906 58.1504C54.0559 58.2979 53.9531 58.4404 53.7801 58.5548L52.7897 59.2061L51.9964 59.7289L51.4581 61.7959C51.326 62.3014 50.8841 62.4483 50.476 62.1228L48.8076 60.7889L46.6755 60.9164C46.1538 60.9469 45.8781 60.572 46.0622 60.0832L46.8144 58.0838L46.4682 57.1997L46.0349 56.0961C45.9593 55.9029 45.9576 55.7274 46.0142 55.5869Z" fill="#FFAA17"/>
<path d="M46.9184 54.3708L49.0515 54.4685C49.0515 54.4685 49.7858 53.865 49.7862 53.8652L50.7023 53.1121C51.1065 52.7809 51.5495 52.9216 51.688 53.4253L52.0026 54.5685L52.2544 55.4853L54.0537 56.6358C54.4938 56.9169 54.4971 57.3825 54.0611 57.6703L53.0707 58.3218L52.2772 58.8444L51.7389 60.9114C51.607 61.417 51.1651 61.564 50.7569 61.2385L49.0884 59.9046L46.9565 60.0321C46.4348 60.0626 46.1591 59.6877 46.343 59.1988L47.0954 57.1995L46.7492 56.3152L46.3157 55.2116C46.1255 54.7251 46.3966 54.3467 46.9184 54.3708Z" fill="#FFDA33"/>
<path opacity="0.2" d="M52.708 55.7756L54.0535 56.636C54.2094 56.7352 54.3096 56.8583 54.3556 56.9879L49.4457 60.1906L49.0883 59.9049L46.9563 60.0324C46.7304 60.0453 46.551 59.9826 46.4346 59.8676L52.708 55.7756Z" fill="white"/>
<path opacity="0.2" d="M46.7471 56.3091L51.5683 53.1646C51.619 53.236 51.6602 53.3229 51.6884 53.4254L51.9927 54.5313L46.8337 57.8965L47.0959 57.1998L46.7497 56.3155L46.7471 56.3091Z" fill="white"/>
<defs>
<linearGradient id="paint0_linear_2172_22821" x1="40.2065" y1="60.2597" x2="40.2065" y2="40.3429" gradientUnits="userSpaceOnUse">
<stop stop-color="#FFE705"/>
<stop offset="0.591" stop-color="#FFC805"/>
<stop offset="1" stop-color="#FFB805"/>
</linearGradient>
</defs>
</svg>
