<svg width="114" height="79" viewBox="0 0 114 79" fill="none" xmlns="http://www.w3.org/2000/svg">
<path d="M27.7655 11.369L12.3207 7.07533C11.9959 6.98383 11.6497 6.97673 11.3207 7.05484C10.9917 7.13295 10.6929 7.29319 10.4576 7.51769C10.2223 7.74218 10.0598 8.02208 9.98828 8.32617C9.91671 8.63027 9.93887 8.94658 10.0523 9.23981L14.6954 21.4139C14.86 21.8322 14.8365 22.2931 14.6302 22.6956C14.4239 23.098 14.0516 23.4092 13.5949 23.5607L1.25843 27.3419C0.97663 27.4272 0.721649 27.5737 0.515374 27.769C0.309099 27.9643 0.157693 28.2025 0.0741532 28.4632C-0.00938642 28.7238 -0.0225633 28.9991 0.0357535 29.2655C0.0940703 29.5318 0.222138 29.7812 0.408964 29.9923L10.3708 41.3713C10.6253 41.6672 10.7636 42.0328 10.7636 42.4093C10.7636 42.7859 10.6253 43.1515 10.3708 43.4474L1.53836 53.8634C1.33074 54.1268 1.21108 54.4397 1.19391 54.7641C1.17673 55.0886 1.26277 55.4106 1.4416 55.6912C1.62042 55.9717 1.88435 56.1988 2.20137 56.3448C2.51839 56.4908 2.87489 56.5495 3.22764 56.5138L15.2649 55.0826C15.5465 55.0495 15.8326 55.0768 16.1007 55.1621C16.3688 55.2475 16.6116 55.3886 16.81 55.5745C17.0084 55.7603 17.1569 55.9858 17.2439 56.2331C17.3309 56.4804 17.354 56.7428 17.3113 56.9997L14.4927 74.0328C14.4407 74.3504 14.4894 74.675 14.633 74.9681C14.7766 75.2611 15.009 75.5103 15.3027 75.6861C15.5964 75.8619 15.939 75.9569 16.2899 75.9598C16.6408 75.9627 16.9853 75.8734 17.2824 75.7025L31.0572 67.7514C31.2789 67.6224 31.5282 67.5386 31.7883 67.5055C32.0485 67.4724 32.3133 67.4908 32.565 67.5595C32.8167 67.6282 33.0493 67.7455 33.2472 67.9036C33.445 68.0617 33.6035 68.2568 33.7118 68.4758L38.3259 77.8052C38.4515 78.0589 38.6441 78.28 38.8864 78.4485C39.1287 78.6171 39.413 78.7279 39.7137 78.7708C40.0144 78.8138 40.322 78.7876 40.6089 78.6946C40.8958 78.6015 41.1528 78.4447 41.3569 78.238L51.425 68.1578C51.6813 67.8948 52.0216 67.7123 52.3975 67.6362C52.7735 67.5601 53.1661 67.5942 53.5197 67.7337L77.99 77.4518C78.2976 77.5742 78.636 77.6172 78.9685 77.5758C79.3009 77.5345 79.6145 77.4105 79.8753 77.2174C80.1361 77.0243 80.334 76.7694 80.4475 76.4805C80.561 76.1916 80.5858 75.8797 80.5191 75.5788L79.0229 68.7585C78.957 68.4645 78.9785 68.1598 79.085 67.876C79.1916 67.5922 79.3793 67.3397 79.6287 67.1448C79.8781 66.95 80.18 66.8199 80.5029 66.7681C80.8259 66.7162 81.1582 66.7446 81.4651 66.8502L95.0468 71.4884C95.3746 71.6019 95.7311 71.627 96.074 71.5608C96.4169 71.4946 96.7319 71.3399 96.9818 71.115C97.2316 70.89 97.4058 70.6043 97.4837 70.2916C97.5616 69.9789 97.54 69.6523 97.4215 69.3504L95.3847 64.1204C95.2841 63.8634 95.2535 63.5879 95.2956 63.3176C95.3376 63.0474 95.4511 62.7906 95.626 62.5696C95.801 62.3485 96.0322 62.1699 96.2997 62.0491C96.5671 61.9283 96.8627 61.869 97.1608 61.8764L111.293 62.2297C111.611 62.2376 111.927 62.1693 112.208 62.0317C112.489 61.894 112.726 61.6917 112.895 61.4447C113.065 61.1976 113.161 60.9144 113.175 60.623C113.188 60.3315 113.118 60.0419 112.972 59.7826L106.833 48.7923C106.675 48.5148 106.604 48.2022 106.63 47.89C106.656 47.5777 106.776 47.2782 106.978 47.0254L113.658 38.4558C113.808 38.263 113.913 38.0431 113.964 37.8106C114.015 37.5782 114.012 37.3384 113.954 37.1072C113.897 36.876 113.787 36.6586 113.631 36.4692C113.475 36.2799 113.277 36.1229 113.05 36.0087L107.065 33.0049C106.675 32.8079 106.376 32.4876 106.225 32.1039C106.074 31.7202 106.081 31.2994 106.244 30.9199L111.351 19.0816C111.467 18.8109 111.504 18.5173 111.459 18.2296C111.414 17.9418 111.288 17.6697 111.093 17.4399C110.898 17.2101 110.642 17.0306 110.349 16.9188C110.055 16.807 109.735 16.7668 109.42 16.8022L97.5856 18.2599C97.3117 18.2943 97.0329 18.2716 96.77 18.1935C96.5071 18.1155 96.2669 17.984 96.0673 17.809C95.8678 17.634 95.714 17.4199 95.6175 17.1829C95.521 16.9458 95.4843 16.6919 95.5102 16.44L96.572 5.83849C96.5982 5.55627 96.546 5.27256 96.4201 5.0138C96.2943 4.75503 96.0989 4.52962 95.8523 4.35855C95.6056 4.18748 95.3157 4.07632 95.0094 4.03541C94.7032 3.9945 94.3906 4.02517 94.1008 4.12458L76.9185 10.1144C76.6493 10.2094 76.3594 10.2449 76.0723 10.2181C75.7852 10.1912 75.5092 10.1027 75.2665 9.95981C75.0238 9.81692 74.8214 9.62364 74.6757 9.39568C74.5301 9.16772 74.4452 8.91152 74.4281 8.64789L73.9647 1.58021C73.9458 1.28531 73.8422 1.00019 73.6643 0.75367C73.4865 0.507148 73.2407 0.307948 72.9518 0.176194C72.6629 0.0444405 72.3411 -0.015201 72.019 0.00329313C71.6968 0.0217873 71.3857 0.117763 71.1171 0.281525L54.2147 10.4325C53.9132 10.6167 53.5588 10.715 53.1963 10.715C52.8338 10.715 52.4794 10.6167 52.1779 10.4325L35.874 0.40521C35.6376 0.258127 35.3668 0.163679 35.0833 0.129405C34.7999 0.0951318 34.5116 0.121982 34.2415 0.207813C33.9714 0.293644 33.727 0.43608 33.5278 0.623746C33.3285 0.811413 33.18 1.03911 33.094 1.28867L30.0533 10.2558C29.9107 10.6808 29.5898 11.0367 29.1609 11.2454C28.732 11.454 28.2302 11.4985 27.7655 11.369Z" fill="#EA2227"/>
</svg>
