<svg width="26" height="28" viewBox="0 0 26 28" fill="none" xmlns="http://www.w3.org/2000/svg">
<path fill-rule="evenodd" clip-rule="evenodd" d="M3.23441 13.2235C3.03752 13.6988 3 13.9416 3 14V24.0023C3 24.6912 3.55815 25.25 4.25 25.25H8V17.75C8 16.3693 9.11929 15.25 10.5 15.25H15.5C16.8807 15.25 18 16.3693 18 17.75V25.25H21.75C22.4419 25.25 23 24.6912 23 24.0023V14C23 13.9416 22.9625 13.6988 22.7656 13.2235C22.5827 12.7821 22.3054 12.2408 21.9434 11.6281C21.2205 10.4047 20.2062 8.97499 19.071 7.61273C17.9332 6.24735 16.7049 4.98711 15.5628 4.08067C14.9918 3.62755 14.4671 3.28261 14.0069 3.0555C13.5363 2.82327 13.2051 2.75 13 2.75C12.7949 2.75 12.4637 2.82327 11.9931 3.0555C11.5329 3.28261 11.0082 3.62755 10.4372 4.08067C9.29512 4.98711 8.06685 6.24735 6.92903 7.61273C5.79381 8.97499 4.77952 10.4047 4.05663 11.6281C3.6946 12.2408 3.41731 12.7821 3.23441 13.2235ZM10.8868 0.81364C11.5441 0.489225 12.2676 0.25 13 0.25C13.7324 0.25 14.4559 0.489225 15.1132 0.81364C15.781 1.14318 16.4574 1.59901 17.1169 2.12245C18.4357 3.16914 19.7856 4.56515 20.9915 6.01227C22.2001 7.46251 23.2951 9.0015 24.0957 10.3563C24.4954 11.0327 24.8333 11.6828 25.0752 12.2667C25.3032 12.8168 25.5 13.4334 25.5 14V24.0023C25.5 26.0748 23.8196 27.75 21.75 27.75H18C16.6193 27.75 15.5 26.6307 15.5 25.25V17.75H10.5V25.25C10.5 26.6307 9.38071 27.75 8 27.75H4.25C2.18042 27.75 0.5 26.0748 0.5 24.0023V14C0.5 13.4334 0.696851 12.8168 0.92477 12.2667C1.16667 11.6828 1.50462 11.0327 1.90431 10.3563C2.70486 9.0015 3.79994 7.46251 5.00847 6.01227C6.21441 4.56515 7.56426 3.16914 8.88308 2.12245C9.54262 1.59901 10.219 1.14318 10.8868 0.81364Z" fill="#019543"/>
</svg>
