<svg preserveAspectRatio="none" width="100%" height="100%" overflow="visible" style="display: block;" viewBox="0 0 44 26" fill="none" xmlns="http://www.w3.org/2000/svg">
<g id="hotline ">
<rect id="Rectangle 3" x="1" width="42" height="26" fill="var(--fill-0, #00A842)"/>
<path id="Vector" d="M1 5.03329C5.36062 4.91216 8.7003 5.46045 11.2329 6.38102M43 5.03329C38.638 4.91213 34.8037 5.46079 32.2708 6.38188M11.2329 6.38102C17.0636 8.50044 18.6162 12.5932 18.5 15.0333C18.5 18.8993 15.366 22.0333 11.5 22.0333H11.006C7.14005 22.0333 4.00604 18.8993 4.00604 15.0333C3.89008 12.5981 5.43321 8.50904 11.2329 6.38102ZM11.2329 6.38102C13.769 5.45048 17.1189 4.89493 21.5 5.01663H22C26.3824 4.89489 29.7337 5.45082 32.2708 6.38188M32.2708 6.38188C38.0703 8.51014 39.6159 12.5985 39.5 15.0333C39.5 18.8993 36.366 22.0333 32.5 22.0333H32.006C28.14 22.0333 25.006 18.8993 25.006 15.0333C24.8899 12.5935 26.442 8.50154 32.2708 6.38188Z" stroke="var(--stroke-0, white)" stroke-width="2"/>
</g>
</svg>
