<svg preserveAspectRatio="none" width="100%" height="100%" overflow="visible" style="display: block;" viewBox="0 0 40 40" fill="none" xmlns="http://www.w3.org/2000/svg">
<g id="icon_line" clip-path="url(#clip0_2041_1112)">
<path id="Vector" d="M20 0.833331C8.975 0.833331 0 8.16333 0 17.1717C0 25.24 7.11667 32 16.725 33.285C17.3767 33.4233 18.2633 33.7183 18.4883 34.275C18.6883 34.78 18.62 35.56 18.5517 36.0867L18.2783 37.7967C18.2033 38.3017 17.8783 39.785 20.0267 38.8783C22.1783 37.975 31.5533 32.0383 35.7533 27.18C38.6267 24.0133 40 20.7683 40 17.1717C40 8.16333 31.025 0.833331 20 0.833331ZM12.1717 22.5283H8.195C7.62 22.5283 7.145 22.05 7.145 21.4733V13.4717C7.145 12.8933 7.62 12.415 8.195 12.415C8.775 12.415 9.245 12.8933 9.245 13.4717V20.4167H12.1717C12.7517 20.4167 13.22 20.8917 13.22 21.4733C13.22 22.05 12.75 22.5283 12.1717 22.5283ZM16.2817 21.4733C16.2817 22.05 15.8117 22.5283 15.23 22.5283C14.655 22.5283 14.185 22.05 14.185 21.4733V13.4717C14.185 12.8933 14.655 12.415 15.235 12.415C15.8117 12.415 16.2817 12.8933 16.2817 13.4717V21.4733ZM25.85 21.4733C25.85 21.9267 25.56 22.3283 25.13 22.4733C25.0233 22.5083 24.9083 22.525 24.7983 22.525C24.4467 22.525 24.1467 22.3733 23.9483 22.105L19.8767 16.5417V21.4717C19.8767 22.0483 19.4117 22.5267 18.825 22.5267C18.2483 22.5267 17.7817 22.0483 17.7817 21.4717V13.4717C17.7817 13.0183 18.07 12.6167 18.4983 12.4733C18.5983 12.435 18.725 12.4183 18.8217 12.4183C19.1467 12.4183 19.4467 12.5933 19.6467 12.845L23.75 18.43V13.4717C23.75 12.8933 24.22 12.415 24.8 12.415C25.375 12.415 25.85 12.8933 25.85 13.4717V21.4733ZM32.275 16.415C32.8567 16.415 33.325 16.8933 33.325 17.4733C33.325 18.0517 32.8567 18.53 32.275 18.53H29.35V20.4167H32.275C32.8567 20.4167 33.325 20.8917 33.325 21.4733C33.325 22.05 32.8567 22.5283 32.275 22.5283H28.2983C27.7233 22.5283 27.2533 22.05 27.2533 21.4733V13.4717C27.2533 12.8933 27.7233 12.415 28.3033 12.415H32.28C32.8567 12.415 33.325 12.8933 33.325 13.4717C33.325 14.0567 32.8567 14.5283 32.275 14.5283H29.35V16.415H32.275Z" fill="var(--fill-0, white)"/>
</g>
<defs>
<clipPath id="clip0_2041_1112">
<rect width="40" height="40" fill="white"/>
</clipPath>
</defs>
</svg>
