<svg width="60" height="60" viewBox="0 0 60 60" fill="none" xmlns="http://www.w3.org/2000/svg">
<path d="M17.5 30C17.5 28.6193 18.6193 27.5 20 27.5H52.5C53.8807 27.5 55 28.6193 55 30C55 31.3807 53.8807 32.5 52.5 32.5H20C18.6193 32.5 17.5 31.3807 17.5 30Z" fill="white"/>
<path d="M17.5 10C17.5 8.61929 18.6193 7.5 20 7.5H52.5C53.8807 7.5 55 8.61929 55 10C55 11.3807 53.8807 12.5 52.5 12.5H20C18.6193 12.5 17.5 11.3807 17.5 10Z" fill="white"/>
<path d="M17.5 50C17.5 48.6193 18.6193 47.5 20 47.5H52.5C53.8807 47.5 55 48.6193 55 50C55 51.3807 53.8807 52.5 52.5 52.5H20C18.6193 52.5 17.5 51.3807 17.5 50Z" fill="white"/>
<rect x="5" y="6.25" width="7.5" height="7.5" rx="2.5" fill="white"/>
<rect x="5" y="26.25" width="7.5" height="7.5" rx="2.5" fill="white"/>
<rect x="5" y="46.25" width="7.5" height="7.5" rx="2.5" fill="white"/>
</svg>
