<svg preserveAspectRatio="none" width="100%" height="100%" overflow="visible" style="display: block;" viewBox="0 0 235 28" fill="none" xmlns="http://www.w3.org/2000/svg">
<g id="Frame 3">
<path id="Subtract" d="M30.327 26.8721C22.9065 26.8721 16.891 20.8566 16.891 13.436C16.891 6.01552 22.9065 1.63575e-06 30.327 1.63575e-06C35.9841 1.63575e-06 40.8245 3.49609 42.8057 8.44551H37.6118C36.0205 6.1272 33.3514 4.60664 30.327 4.60664C25.4507 4.60664 21.4976 8.5597 21.4976 13.436C21.4976 18.3124 25.4507 22.2654 30.327 22.2654C32.8117 22.2654 35.0567 21.2391 36.6612 19.5872H42.2755C40.0436 23.9138 35.5308 26.8721 30.327 26.8721Z" fill="var(--fill-0, #00ADF2)"/>
<path id="Subtract_2" fill-rule="evenodd" clip-rule="evenodd" d="M57.9669 1.63575e-06C65.3874 1.63575e-06 71.403 6.01552 71.403 13.436C71.403 20.8566 65.3874 26.8721 57.9669 26.8721C50.5464 26.8721 44.5309 20.8566 44.5309 13.436C44.5309 6.01552 50.5464 1.63575e-06 57.9669 1.63575e-06ZM57.9669 4.60664C53.0906 4.60664 49.1375 8.5597 49.1375 13.436C49.1375 18.3124 53.0906 22.2654 57.9669 22.2654C62.8433 22.2654 66.7963 18.3124 66.7963 13.436C66.7963 8.5597 62.8433 4.60664 57.9669 4.60664Z" fill="var(--fill-0, #00ADF2)"/>
<path id="Subtract_3" d="M114.398 26.8721C106.978 26.8721 100.962 20.8566 100.962 13.436C100.962 6.01552 106.978 1.63575e-06 114.398 1.63575e-06C120.053 1.63575e-06 124.892 3.4933 126.875 8.43959L121.683 8.44551C120.092 6.1272 117.423 4.60664 114.398 4.60664C109.522 4.60664 105.569 8.5597 105.569 13.436C105.569 18.3124 109.522 22.2654 114.398 22.2654C117.554 22.2654 120.323 20.61 121.884 18.1203V16.4357H116.126V11.4451H121.884H123.002H126.875V16.4357V18.4325C126.504 19.3577 126.033 20.2321 125.476 21.0423C123.053 24.5634 118.995 26.8721 114.398 26.8721Z" fill="var(--fill-0, #00ADF2)"/>
<path id="Subtract_4" fill-rule="evenodd" clip-rule="evenodd" d="M157.394 0.383888C164.814 0.383888 170.83 6.39941 170.83 13.8199C170.83 21.2405 164.814 27.256 157.394 27.256C149.973 27.256 143.958 21.2405 143.958 13.8199C143.958 6.39941 149.973 0.383888 157.394 0.383888ZM157.394 4.99053C152.517 4.99053 148.564 8.94359 148.564 13.8199C148.564 18.6963 152.517 22.6493 157.394 22.6493C162.27 22.6493 166.223 18.6963 166.223 13.8199C166.223 8.94359 162.27 4.99053 157.394 4.99053Z" fill="var(--fill-0, #00ADF2)"/>
<path id="Vector" d="M129.37 1.63575e-06H134.36V21.8816H143.574V26.8721H134.36H129.37V21.8816V1.63575e-06Z" fill="var(--fill-0, #00ADF2)"/>
<path id="Vector_2" d="M219.967 1.63575e-06H224.958V21.8816H234.171V26.8721H224.958H219.967V21.8816V1.63575e-06Z" fill="var(--fill-0, #00ADF2)"/>
<path id="Vector_3" fill-rule="evenodd" clip-rule="evenodd" d="M178.891 26.8721H173.901V21.8816V15.7394V10.7488V4.99053V1.63575e-06H182.922C186.632 1.63575e-06 189.64 3.00776 189.64 6.71802C189.64 9.07465 188.427 11.1479 186.591 12.3469C189.084 13.6153 190.792 16.2054 190.792 19.1943C190.792 23.4346 187.354 26.8721 183.114 26.8721H178.891ZM184.266 7.86968C184.266 9.4598 182.977 10.7488 181.387 10.7488H178.891V4.99053H181.387C182.977 4.99053 184.266 6.27957 184.266 7.86968ZM178.891 15.7394H182.154C183.85 15.7394 185.225 17.1143 185.225 18.8105C185.225 20.5066 183.85 21.8816 182.154 21.8816H178.891V15.7394Z" fill="var(--fill-0, #00ADF2)"/>
<path id="Vector_4" fill-rule="evenodd" clip-rule="evenodd" d="M200.021 19.9621H209.625L212.536 26.8675H217.952L206.625 1.63575e-06H203.021L191.694 26.8675H197.11L200.021 19.9621ZM202.125 14.9716H207.521L204.823 8.57254L202.125 14.9716Z" fill="var(--fill-0, #00ADF2)"/>
<path id="Vector_5" d="M0 0H4.99053H14.2038V4.99053H4.99053V11.1327H14.2038V16.1233H4.99053V21.8816H14.2038V26.8721H0V16.1233V11.1327V4.99053V0Z" fill="var(--fill-0, #00ADF2)"/>
<path id="Vector_6" d="M90.096 13.736C90.096 14.4833 89.9067 15.1758 89.5281 15.8135C89.1594 16.4511 88.6562 16.9643 88.0185 17.3529C87.3908 17.7415 86.6834 17.9358 85.8963 17.9358C85.149 17.9358 84.4615 17.7464 83.8338 17.3678C83.216 16.9793 82.7228 16.4661 82.3542 15.8284C81.9855 15.1907 81.8012 14.4933 81.8012 13.736C81.8012 12.9688 81.9855 12.2764 82.3542 11.6586C82.7328 11.0409 83.231 10.5526 83.8487 10.1939C84.4764 9.82527 85.159 9.64095 85.8963 9.64095C86.6734 9.64095 87.3759 9.82527 88.0036 10.1939C88.6413 10.5626 89.1495 11.0558 89.5281 11.6735C89.9067 12.2913 90.096 12.9788 90.096 13.736Z" fill="var(--fill-0, #00ADF2)"/>
</g>
</svg>
