<svg preserveAspectRatio="none" width="100%" height="100%" overflow="visible" style="display: block;" viewBox="0 0 61 62" fill="none" xmlns="http://www.w3.org/2000/svg">
<g id="Frame 2">
<path id="Vector" d="M41.3346 5.85928C41.7389 1.58503 39.7173 0.487588 37.5224 0.0832673C35.3275 -0.321054 32.3817 0.718616 31.6885 3.83766C30.9954 0.718616 28.0497 -0.321054 25.8548 0.0832673C23.6599 0.487588 21.8693 1.58503 22.2736 5.85928C22.5666 8.95626 27.8513 14.6383 30.8799 17.5846C24.0411 12.5017 18.758 11.9151 16.9713 12.2572C12.7566 13.0753 12.2742 15.3244 12.5056 17.5442C12.737 19.7639 14.5656 22.2968 17.7535 22.0817C14.9567 23.6267 14.7904 26.7461 15.7976 28.7377C16.8048 30.7293 18.3629 32.1375 22.3494 30.5436C25.4194 29.3162 29.635 21.942 31.4606 18.3871C30.8253 21.9297 30.672 30.962 35.1542 38.7249H37.8689C36.0013 36.2413 32.1836 28.7833 31.8601 18.7562C33.7215 22.3595 37.87 29.565 40.9015 30.7771C44.888 32.3709 46.4461 30.9628 47.4533 28.9711C48.4605 26.9795 48.2942 23.8601 45.4974 22.3151C48.6853 22.5302 50.5139 19.9973 50.7453 17.7776C50.9767 15.5578 50.4943 13.3087 46.2796 12.4906C43.1003 11.8734 35.7334 15.8171 32.1781 17.8734C35.1485 15.0492 41.029 9.08978 41.3346 5.85928Z" fill="var(--fill-0, #00A842)"/>
<path id="Vector 6" d="M2 50.0458C4.50294 47.2348 10.1904 41.4511 12.9167 40.8042C16.3245 39.9955 20.5988 41.7861 24.6997 41.8439C28.8007 41.9016 39.082 40.2266 39.082 45.7716C39.082 51.3165 30.7645 49.5837 24.6997 49.1794M42.7786 44.212L53.6953 38.7826C54.9468 38.2627 57.6577 37.6851 58.4894 39.5335C59.5291 41.8439 59.8179 42.6525 57.9696 44.212C56.4909 45.4596 44.7617 51.8171 39.082 54.8399C37.0604 55.5908 31.5501 56.9886 25.6817 56.5727C19.8132 56.1568 17.1909 56.0529 16.6133 56.0529C15.6699 56.0336 13.4134 56.3186 11.9347 57.6124C10.4561 58.9062 9.04674 60.2308 8.52689 60.7314" stroke="var(--stroke-0, #00A842)" stroke-width="2.03954" stroke-linecap="round"/>
</g>
</svg>
