<svg width="1106" height="71" viewBox="0 0 1106 71" fill="none" xmlns="http://www.w3.org/2000/svg">
<g clip-path="url(#clip0_2108_3720)">
<path d="M4 70H1109.5" stroke="#008144"/>
<path d="M87.1444 3.45601C87.1396 3.43311 87.1343 3.41096 87.1291 3.38844C87.1223 3.36367 87.1159 3.33852 87.1084 3.31375C87.0889 3.24656 87.0694 3.19101 87.0532 3.14672C87.0345 3.09417 87.0018 3.01497 86.9785 2.96505C86.9504 2.90386 86.92 2.84531 86.8858 2.78788C86.8603 2.74434 86.831 2.69855 86.8021 2.65726C86.7338 2.55741 86.6629 2.46808 86.5844 2.38475C86.5717 2.37087 86.5585 2.35773 86.545 2.34459C86.5157 2.31531 86.4816 2.28303 86.4467 2.25338C86.4204 2.22936 86.3934 2.20609 86.3705 2.18732C86.3209 2.14603 86.2691 2.10549 86.2188 2.07171C86.1006 1.99101 85.9963 1.93884 85.946 1.91594C85.8994 1.89229 85.8506 1.87052 85.8056 1.85213C85.598 1.76768 85.3799 1.71588 85.1551 1.69786C85.0939 1.6911 85.0323 1.68848 84.9715 1.68848H29.7345C29.453 1.68848 29.1782 1.74065 28.9102 1.84687L14.4911 7.6164C14.4784 7.62203 14.4656 7.62691 14.4525 7.63254L3.51622 12.0088C3.4663 12.0286 3.41713 12.0508 3.36946 12.0752C3.3094 12.1056 3.25085 12.139 3.19267 12.1762C3.08682 12.2388 2.95132 12.3301 2.81356 12.4614C2.70434 12.565 2.62814 12.663 2.5876 12.7178C2.51704 12.8075 2.4262 12.9362 2.34775 13.0992C2.28244 13.2328 2.24491 13.3484 2.22276 13.4235C2.18635 13.5417 2.16008 13.6611 2.14431 13.7778C2.12892 13.8754 2.12067 13.9741 2.12067 14.0694V68.3167C2.12067 69.5407 3.1161 70.5361 4.34012 70.5361H59.5753C59.8568 70.5361 60.1319 70.4836 60.3999 70.3777L85.7951 60.2155C85.8776 60.1824 85.9572 60.1438 86.0334 60.0991C86.1933 60.0128 86.3389 59.9084 86.4602 59.7966C86.5236 59.7395 86.5799 59.6806 86.619 59.6352C86.6295 59.6232 86.6407 59.6112 86.6512 59.5984C86.7657 59.4655 86.8633 59.3188 86.941 59.1675C86.9744 59.1037 87.0183 59.0068 87.0439 58.9397C87.1414 58.6837 87.1906 58.4194 87.1906 58.1548V3.90755C87.1906 3.81221 87.1831 3.73001 87.1752 3.66357C87.1692 3.59301 87.1583 3.52357 87.1444 3.45601Z" fill="white"/>
<path d="M86.9823 3.31087C86.9778 3.28835 86.9729 3.26583 86.9673 3.24293C86.9609 3.21891 86.9541 3.19339 86.9462 3.16861C86.9263 3.10143 86.908 3.04587 86.8914 3.00121C86.8727 2.94866 86.8389 2.86983 86.816 2.81991C86.7878 2.75836 86.7574 2.6998 86.7236 2.64275C86.6978 2.59921 86.6689 2.55379 86.6396 2.51175C86.5713 2.41266 86.4996 2.32407 86.4222 2.23962C86.4095 2.22536 86.3963 2.2126 86.3832 2.19946C86.3539 2.16981 86.3194 2.13828 86.2852 2.10787C86.2582 2.08423 86.2316 2.06095 86.2087 2.04181C86.1591 2.0009 86.1062 1.96073 86.0567 1.92695C85.938 1.84625 85.8341 1.79445 85.7841 1.77118C85.7376 1.74754 85.6884 1.72539 85.6438 1.707C85.4366 1.62254 85.2174 1.573 84.9933 1.55235C84.9321 1.54672 84.8702 1.54297 84.8097 1.54297H29.5723C29.2912 1.54297 29.016 1.59552 28.7484 1.70174L14.3293 7.47126C14.3169 7.47689 14.3042 7.48177 14.291 7.48703L3.35442 11.8632C3.30487 11.8835 3.2557 11.9057 3.20803 11.9301C3.14797 11.9601 3.09017 11.9946 3.03124 12.0307C2.92652 12.0956 2.79026 12.1845 2.65214 12.3163C2.54291 12.4195 2.46709 12.5186 2.4258 12.5727C2.35673 12.6635 2.26477 12.7911 2.18595 12.954C2.12101 13.0876 2.08348 13.2032 2.06058 13.2787C2.0253 13.3962 1.99978 13.5167 1.98251 13.6323C1.96787 13.731 1.95886 13.829 1.95886 13.9239V68.1712C1.95886 69.3952 2.95429 70.391 4.17831 70.391H59.4131C59.695 70.391 59.9698 70.3381 60.2381 70.2322L85.6333 60.0707C85.7155 60.0369 85.7943 59.9975 85.8716 59.954C86.03 59.8646 86.1768 59.7629 86.2984 59.6514C86.3618 59.5936 86.4189 59.5355 86.4575 59.4904C86.4677 59.478 86.4789 59.466 86.4894 59.4533C86.6035 59.32 86.7008 59.1732 86.7788 59.0224C86.8122 58.9585 86.8565 58.8621 86.882 58.7945C86.9796 58.5382 87.0284 58.2743 87.0284 58.0097V3.76242C87.0284 3.66746 87.0206 3.58525 87.0134 3.51844C87.0063 3.44825 86.9969 3.37844 86.9823 3.31087Z" fill="#F1F1F1"/>
<path d="M86.8213 3.16439C86.8164 3.14187 86.8115 3.11935 86.8059 3.0972C86.7995 3.07205 86.7924 3.0469 86.7852 3.02251C86.7661 2.95494 86.7458 2.89939 86.7297 2.8551C86.7105 2.80255 86.6783 2.72298 86.655 2.67305C86.6265 2.61262 86.5964 2.55407 86.5627 2.49626C86.5364 2.45235 86.5071 2.4073 86.4786 2.36564C86.4103 2.26617 86.339 2.17646 86.2609 2.09276C86.2481 2.07925 86.235 2.06611 86.2215 2.05335C86.1918 2.0237 86.1577 1.99179 86.1231 1.96176C86.0961 1.93812 86.0698 1.91409 86.0469 1.89533C85.997 1.85479 85.9456 1.81425 85.8953 1.78009C85.777 1.69939 85.6727 1.64797 85.6224 1.6247C85.5755 1.60105 85.5267 1.57891 85.4816 1.56014C85.2741 1.47568 85.056 1.42614 84.8319 1.40587C84.77 1.40024 84.7088 1.39648 84.648 1.39648H29.4113C29.1302 1.39648 28.8551 1.44903 28.5871 1.55526L14.1679 7.32516C14.1548 7.33079 14.1424 7.33491 14.1293 7.3413L3.19305 11.7171C3.14313 11.7367 3.09396 11.7596 3.04629 11.7836C2.98661 11.8136 2.92805 11.8474 2.86912 11.8838C2.7644 11.9484 2.62815 12.0377 2.49002 12.1691C2.38079 12.2727 2.30534 12.3714 2.26406 12.4258C2.19499 12.5166 2.10265 12.6443 2.02421 12.8068C1.95927 12.9404 1.92136 13.0564 1.89884 13.1315C1.86356 13.2493 1.83766 13.3698 1.82077 13.4854C1.80613 13.5838 1.79712 13.6821 1.79712 13.7774V68.0247C1.79712 69.2487 2.79217 70.2441 4.01619 70.2441H59.2514C59.5329 70.2441 59.808 70.1923 60.076 70.0861L85.4715 59.9242C85.5537 59.8912 85.6325 59.851 85.7099 59.8075C85.8679 59.7185 86.0146 59.6164 86.1366 59.5046C86.1993 59.4472 86.2552 59.3879 86.2947 59.3436C86.3052 59.3316 86.3164 59.3195 86.3273 59.3068C86.4418 59.1739 86.539 59.0271 86.6175 58.8755C86.6505 58.8121 86.6952 58.7152 86.7203 58.648C86.8179 58.3917 86.8671 58.1278 86.8671 57.8632V3.61594C86.8671 3.52097 86.8596 3.43839 86.8517 3.37196C86.8446 3.30102 86.8355 3.2312 86.8213 3.16439Z" fill="#E2E2E2"/>
<path d="M86.6595 3.02023C86.6542 2.99734 86.6493 2.97481 86.6441 2.95267C86.6377 2.9279 86.6306 2.90275 86.623 2.87797C86.6024 2.81079 86.5844 2.75523 86.5683 2.71019C86.5491 2.65802 86.5161 2.57882 86.4932 2.5289C86.465 2.46809 86.4346 2.40916 86.4005 2.35173C86.3753 2.30782 86.3457 2.2624 86.3168 2.22111C86.2485 2.12127 86.1771 2.03268 86.0991 1.9486C86.0863 1.93472 86.0732 1.9212 86.0596 1.90844C86.0304 1.87954 85.9962 1.84688 85.9617 1.81686C85.9354 1.79283 85.9084 1.76994 85.8851 1.75042C85.8356 1.70988 85.7834 1.66934 85.7338 1.63556C85.6156 1.55486 85.5109 1.50269 85.461 1.47979C85.4144 1.45614 85.3656 1.43437 85.3206 1.41598C85.113 1.33153 84.8942 1.28236 84.6701 1.26134C84.6089 1.25533 84.5474 1.25195 84.4866 1.25195H29.2495C28.968 1.25195 28.6929 1.3045 28.4252 1.41073L14.0061 7.18062C13.9934 7.18625 13.9806 7.19076 13.9671 7.19676L3.03086 11.573C2.98094 11.5933 2.93214 11.6154 2.88447 11.6394C2.82442 11.6698 2.76624 11.704 2.70768 11.74C2.60221 11.8046 2.46633 11.8939 2.32858 12.0257C2.21935 12.1293 2.14391 12.2276 2.10224 12.282C2.0328 12.3729 1.94159 12.5005 1.86239 12.6634C1.79746 12.797 1.7603 12.9126 1.7374 12.9877C1.70287 13.1048 1.67697 13.2249 1.6597 13.3413C1.64544 13.4396 1.63568 13.5376 1.63568 13.6333V67.8805C1.63568 69.1038 2.63149 70.0996 3.85551 70.0996H59.0903C59.3718 70.0996 59.6469 70.0474 59.9153 69.9416L85.3101 59.7793C85.3923 59.7463 85.4718 59.7065 85.5488 59.663C85.7072 59.5744 85.8532 59.4712 85.9752 59.3601C86.0386 59.3023 86.0946 59.2437 86.1343 59.199C86.1449 59.187 86.1561 59.175 86.1666 59.1623C86.2807 59.0294 86.3779 58.8822 86.4564 58.7313C86.4894 58.6675 86.5333 58.5707 86.5592 58.5035C86.6568 58.2471 86.7056 57.9833 86.7056 57.7183V3.4714C86.7056 3.37644 86.6977 3.29424 86.6906 3.2278C86.6835 3.15724 86.6737 3.08742 86.6595 3.02023Z" fill="#D4D4D4"/>
<path d="M86.4977 2.87435C86.4928 2.85145 86.488 2.82931 86.4823 2.80679C86.4756 2.78164 86.4692 2.75649 86.4613 2.73247C86.441 2.66528 86.423 2.60935 86.4069 2.56506C86.3874 2.51251 86.3543 2.43331 86.3314 2.38301C86.3037 2.32221 86.2729 2.26365 86.2391 2.20622C86.2136 2.16268 86.1843 2.11727 86.155 2.0756C86.0863 1.97651 86.0158 1.88718 85.9373 1.8031C85.9249 1.78921 85.9122 1.77607 85.8983 1.76293C85.8686 1.73403 85.8345 1.70213 85.7999 1.67172C85.7733 1.64808 85.7466 1.62405 85.7237 1.60566C85.6738 1.56475 85.6224 1.52421 85.5717 1.49005C85.4531 1.40973 85.3491 1.35793 85.2992 1.33428C85.2523 1.31064 85.2039 1.28887 85.1585 1.27047C84.9516 1.18564 84.7328 1.13647 84.5087 1.1162C84.4468 1.1102 84.3856 1.10645 84.3248 1.10645H29.0874C28.8066 1.10645 28.5311 1.15899 28.2635 1.26522L13.8448 7.03512C13.832 7.04037 13.8192 7.04488 13.8065 7.05088L2.86949 11.4271C2.81995 11.447 2.77078 11.4691 2.72311 11.4935C2.66343 11.5239 2.60525 11.5581 2.54669 11.5945C2.44197 11.6594 2.30572 11.7484 2.16759 11.8794C2.05798 11.9834 1.98254 12.0821 1.94125 12.1361C1.87143 12.227 1.78022 12.355 1.7014 12.5175C1.63609 12.6515 1.59855 12.7667 1.57603 12.8418C1.54038 12.9604 1.51523 13.0801 1.49796 13.1961C1.48332 13.2941 1.47394 13.3924 1.47394 13.4878V67.735C1.47394 68.959 2.46937 69.9545 3.69339 69.9545H58.9286C59.2104 69.9545 59.4852 69.9019 59.7536 69.7961L85.1487 59.6342C85.2313 59.6008 85.3101 59.5614 85.3871 59.5175C85.5458 59.4281 85.6922 59.326 85.8138 59.2149C85.8769 59.1575 85.9336 59.0986 85.9726 59.0535C85.9831 59.0415 85.9947 59.0295 86.0053 59.0171C86.119 58.8839 86.2158 58.7363 86.2943 58.5855C86.3277 58.5216 86.372 58.4252 86.3975 58.358C86.4947 58.102 86.5439 57.8378 86.5439 57.5731V3.3259C86.5439 3.23056 86.536 3.14836 86.5292 3.08192C86.5217 3.01173 86.5124 2.94191 86.4977 2.87435Z" fill="#C5C5C5"/>
<path d="M86.3366 2.72982C86.3314 2.70692 86.3269 2.68478 86.3209 2.66225C86.3149 2.63748 86.3077 2.61233 86.3002 2.58756C86.2807 2.52 86.2616 2.46444 86.2454 2.42015C86.2263 2.3676 86.1933 2.2884 86.1704 2.23848C86.1418 2.1773 86.1118 2.11875 86.078 2.06132C86.0525 2.01778 86.0225 1.97273 85.9939 1.9307C85.9253 1.8316 85.8543 1.74189 85.7762 1.65819C85.7635 1.6443 85.7507 1.63117 85.7372 1.6184C85.7079 1.58913 85.6734 1.55722 85.6392 1.52682C85.6122 1.50317 85.5856 1.47952 85.563 1.46076C85.5131 1.41947 85.4617 1.37968 85.411 1.34552C85.2928 1.2652 85.1884 1.21302 85.1382 1.18975C85.0916 1.16611 85.0432 1.14433 84.9978 1.12557C84.7902 1.04111 84.5717 0.991567 84.3477 0.971298C84.2861 0.965668 84.2249 0.961914 84.1637 0.961914H28.9263C28.6452 0.961914 28.3704 1.01446 28.102 1.12069L13.6833 6.88983C13.6702 6.89509 13.6574 6.89997 13.6447 6.9056L2.70805 11.2822C2.65812 11.3021 2.60895 11.3246 2.56128 11.349C2.5016 11.379 2.44342 11.4132 2.38449 11.4496C2.28015 11.5145 2.14352 11.6035 2.00539 11.7349C1.89616 11.8385 1.82109 11.9368 1.77943 11.9912C1.70999 12.0821 1.61878 12.2101 1.53958 12.3726C1.47464 12.5066 1.43748 12.6218 1.41459 12.6973C1.37893 12.8148 1.3534 12.9352 1.33651 13.0512C1.32187 13.1496 1.31287 13.2475 1.31287 13.3429V67.5897C1.31287 68.8141 2.3083 69.8096 3.53194 69.8096H58.7671C59.0486 69.8096 59.3238 69.757 59.5918 69.6512L84.9873 59.4893C85.0698 59.4563 85.1483 59.4165 85.2256 59.3729C85.3836 59.284 85.5308 59.1815 85.6524 59.07C85.7151 59.0126 85.7714 58.9537 85.8108 58.909C85.8213 58.897 85.8329 58.885 85.8434 58.8722C85.9575 58.7393 86.0551 58.5918 86.1328 58.4409C86.1659 58.3775 86.2102 58.2807 86.2357 58.2131C86.3333 57.9571 86.3824 57.6929 86.3824 57.4286V3.18137C86.3824 3.08603 86.3746 3.00382 86.3674 2.93701C86.3603 2.86645 86.3509 2.79663 86.3366 2.72982Z" fill="#B7B7B7"/>
<path d="M86.1741 2.58333C86.1696 2.56044 86.1647 2.53867 86.1591 2.51577C86.1527 2.491 86.146 2.46585 86.1384 2.44107C86.1193 2.37426 86.099 2.31834 86.0829 2.27367C86.0641 2.22149 86.0315 2.1423 86.0078 2.09237C85.98 2.03119 85.9496 1.97226 85.9159 1.91521C85.89 1.87129 85.8603 1.82625 85.8314 1.78459C85.7631 1.68549 85.6921 1.59578 85.6145 1.51208C85.6013 1.49819 85.5886 1.48506 85.5754 1.47192C85.5461 1.44189 85.5112 1.41111 85.4771 1.38108C85.4504 1.35706 85.4234 1.33379 85.4005 1.31465C85.3506 1.27411 85.2984 1.2332 85.2489 1.19941C85.1302 1.11909 85.0259 1.06654 84.976 1.04364C84.9294 1.02 84.8806 0.99785 84.8356 0.979083C84.6288 0.893878 84.4092 0.846959 84.1851 0.825189C84.1239 0.819559 84.0624 0.81543 84.0016 0.81543H28.7642C28.483 0.81543 28.2079 0.868354 27.9403 0.974203L13.5215 6.74372C13.5088 6.74935 13.496 6.75386 13.4829 6.75986L2.54664 11.1361C2.49634 11.1564 2.44717 11.1785 2.3995 11.2025C2.33944 11.2325 2.28164 11.2667 2.22271 11.3031C2.11798 11.368 1.98136 11.457 1.8436 11.5884C1.73438 11.6924 1.65855 11.7907 1.61727 11.8451C1.54783 11.936 1.45624 12.0636 1.37742 12.2269C1.31286 12.3605 1.27495 12.4757 1.25243 12.5508C1.21677 12.669 1.19124 12.7888 1.17398 12.9047C1.15971 13.0031 1.15033 13.1018 1.15033 13.1971V67.4444C1.15033 68.668 2.14614 69.6635 3.36978 69.6635H58.6057C58.8872 69.6635 59.1623 69.6109 59.4303 69.5051L84.8255 59.3432C84.9077 59.3098 84.9869 59.27 85.0638 59.2268C85.2222 59.1379 85.369 59.0358 85.4906 58.9243C85.554 58.8665 85.6103 58.8083 85.6497 58.7629C85.6599 58.7509 85.6711 58.7389 85.6816 58.7265C85.7969 58.5943 85.893 58.4461 85.9714 58.2948C86.0044 58.2314 86.0487 58.1349 86.0746 58.0677C86.1715 57.811 86.2218 57.5471 86.2218 57.2825V3.03488C86.2218 2.93954 86.2131 2.85771 86.206 2.79128C86.1981 2.72071 86.1876 2.65052 86.1741 2.58333Z" fill="#A8A8A8"/>
<path d="M86.0128 2.43745C86.0079 2.41455 86.0026 2.39241 85.997 2.37026C85.9906 2.34511 85.9843 2.31997 85.9764 2.29519C85.9565 2.22838 85.9377 2.17245 85.9216 2.12816C85.9021 2.07561 85.869 1.99641 85.8461 1.94649C85.8184 1.88568 85.7876 1.82713 85.7538 1.7697C85.7279 1.72578 85.699 1.67999 85.6701 1.6387C85.6014 1.53923 85.5305 1.45028 85.452 1.3662C85.4392 1.35231 85.4269 1.33917 85.413 1.32604C85.3833 1.29713 85.3492 1.26523 85.3146 1.23483C85.288 1.21118 85.261 1.18753 85.2384 1.16839C85.1889 1.12747 85.1367 1.08731 85.0864 1.05316C84.9682 0.97283 84.8642 0.920656 84.8139 0.897385C84.767 0.873737 84.7186 0.851967 84.6732 0.833575C84.4663 0.749121 84.2475 0.700325 84.0234 0.679306C83.9615 0.6733 83.9003 0.669922 83.8395 0.669922H28.6025C28.3217 0.669922 28.0466 0.722096 27.7786 0.82832L13.3598 6.59784C13.3471 6.60385 13.3343 6.60798 13.3212 6.61398L2.38456 10.9906C2.33464 11.0105 2.28584 11.0322 2.23855 11.0566C2.17849 11.0874 2.12031 11.1216 2.06138 11.1576C1.95666 11.2222 1.82041 11.3115 1.68228 11.4429C1.57343 11.5465 1.49761 11.6452 1.45632 11.6992C1.3865 11.7901 1.29529 11.9181 1.21647 12.0806C1.15116 12.2146 1.11362 12.3302 1.0911 12.4049C1.05544 12.5228 1.02992 12.6432 1.01303 12.7592C0.998764 12.8568 0.98938 12.9555 0.98938 13.0509V67.2985C0.98938 68.5225 1.98481 69.5179 3.20883 69.5179H58.4436C58.7251 69.5179 59.0003 69.4654 59.2686 69.3595L84.6638 59.1973C84.7464 59.1643 84.8252 59.1245 84.9021 59.0809C85.0605 58.992 85.2073 58.8895 85.3289 58.7784C85.392 58.721 85.4483 58.6617 85.4873 58.617C85.4982 58.6046 85.5098 58.593 85.5203 58.5802C85.6341 58.4473 85.7316 58.3006 85.8097 58.1493C85.8428 58.0851 85.8874 57.9887 85.9133 57.9215C86.0109 57.6659 86.0593 57.4016 86.0593 57.1366V2.889C86.0593 2.79403 86.0518 2.71146 86.0443 2.64502C86.0368 2.57445 86.0278 2.50501 86.0128 2.43745Z" fill="#9A9A9A"/>
<path d="M85.8514 2.29134C85.8465 2.26844 85.842 2.24592 85.836 2.2234C85.83 2.19863 85.8228 2.17386 85.8153 2.14908C85.7954 2.08152 85.7763 2.02597 85.7601 1.98168C85.7414 1.92913 85.7084 1.84993 85.6855 1.80001C85.6569 1.73882 85.6269 1.68027 85.5931 1.62284C85.5668 1.57892 85.5376 1.53388 85.509 1.49222C85.44 1.39275 85.3694 1.30342 85.2913 1.21971C85.2786 1.20583 85.2654 1.19269 85.2519 1.17955C85.2223 1.1499 85.1881 1.11874 85.154 1.08834C85.1269 1.06394 85.1003 1.04105 85.0774 1.0219C85.0278 0.98099 84.976 0.940828 84.9257 0.906671C84.8071 0.826346 84.7032 0.774172 84.6529 0.7509C84.6067 0.727253 84.5575 0.705107 84.5129 0.686715C84.306 0.601511 84.0868 0.553466 83.8627 0.532821C83.8012 0.526816 83.7396 0.523438 83.6788 0.523438H28.4414C28.1599 0.523438 27.8851 0.575611 27.6171 0.681836L13.198 6.45173C13.1853 6.45699 13.1725 6.46187 13.1594 6.4675L2.22313 10.8441C2.17321 10.8636 2.12404 10.8861 2.07637 10.9105C2.01631 10.9413 1.95851 10.9751 1.8992 11.0115C1.79486 11.0757 1.65785 11.1654 1.52047 11.2968C1.41125 11.4004 1.33618 11.4983 1.29451 11.5528C1.22507 11.644 1.13311 11.772 1.05429 11.9345C0.989727 12.0681 0.952192 12.1837 0.929296 12.2592C0.893262 12.3766 0.868114 12.4971 0.851223 12.6131C0.83696 12.7111 0.827576 12.8094 0.827576 12.9044V67.1516C0.827576 68.376 1.82301 69.3715 3.04665 69.3715H58.2818C58.5633 69.3715 58.8385 69.3189 59.1065 69.2127L84.502 59.0508C84.5842 59.0178 84.663 58.978 84.7399 58.9348C84.8987 58.8462 85.0451 58.7438 85.1667 58.6323C85.2298 58.5749 85.2861 58.5156 85.3255 58.4713C85.336 58.4592 85.3469 58.4472 85.3578 58.4345C85.4734 58.3024 85.5691 58.1541 85.6475 58.0032C85.6806 57.9394 85.7249 57.8429 85.7504 57.7754C85.848 57.5194 85.8971 57.2551 85.8971 56.9905V2.74326C85.8971 2.64792 85.8893 2.56572 85.8818 2.49891C85.875 2.42834 85.8652 2.35853 85.8514 2.29134Z" fill="#8B8B8B"/>
<path d="M85.6892 2.14719C85.6847 2.12429 85.6802 2.10252 85.6746 2.07962C85.6682 2.05485 85.6611 2.0297 85.6532 2.00493C85.6337 1.93811 85.6142 1.88181 85.5984 1.8379C85.5793 1.78535 85.547 1.70615 85.5237 1.65623C85.4956 1.59504 85.4652 1.53686 85.431 1.47868C85.4055 1.43552 85.3758 1.3901 85.3469 1.34844C85.2782 1.24935 85.2069 1.16039 85.1296 1.07556C85.1172 1.06205 85.1041 1.04928 85.0906 1.03577C85.0605 1.00649 85.0264 0.974213 84.9922 0.944185C84.9656 0.920538 84.9393 0.896891 84.9164 0.877748C84.8669 0.836835 84.8147 0.796297 84.764 0.762515C84.6454 0.682565 84.5414 0.629641 84.4915 0.60712C84.4446 0.583473 84.3962 0.561327 84.3507 0.542935C84.1432 0.458856 83.9247 0.409685 83.7006 0.388665C83.6391 0.383035 83.5779 0.378906 83.5171 0.378906H28.2793C27.9982 0.378906 27.723 0.431831 27.4558 0.53768L13.0363 6.30795C13.0239 6.31283 13.0111 6.31809 12.9984 6.32409L2.06102 10.6996V10.7003C2.01185 10.7206 1.96268 10.742 1.91463 10.7667C1.85458 10.7972 1.79715 10.8309 1.73784 10.8673C1.6335 10.9319 1.49687 11.0212 1.35874 11.1526C1.24951 11.2562 1.17369 11.3549 1.1324 11.4093C1.06296 11.5002 0.971377 11.6278 0.892554 11.7903C0.827993 11.9243 0.790083 12.0392 0.767562 12.115C0.732279 12.2332 0.70638 12.3526 0.689114 12.469C0.67485 12.5673 0.665466 12.6656 0.665466 12.7602V67.0075C0.665466 68.2319 1.66052 69.2269 2.88492 69.2269H58.1197C58.4016 69.2269 58.6767 69.1748 58.9447 69.0685L84.3399 58.907C84.4221 58.874 84.5009 58.8342 84.5782 58.7903C84.7362 58.7013 84.8834 58.5996 85.005 58.4878C85.068 58.4303 85.1236 58.371 85.1634 58.3264C85.1739 58.3147 85.1852 58.3027 85.1957 58.2896C85.309 58.1556 85.4074 58.0096 85.4858 57.8587C85.5192 57.7949 85.5628 57.6984 85.5883 57.6308C85.6859 57.3745 85.7347 57.1102 85.7347 56.8464V2.59911C85.7347 2.50339 85.7268 2.42119 85.7197 2.35438C85.7129 2.28381 85.7031 2.21437 85.6892 2.14719Z" fill="#7D7D7D"/>
<path d="M85.5278 2.00168C85.5229 1.97916 85.5184 1.95664 85.5124 1.93411C85.506 1.90972 85.4993 1.88419 85.4918 1.85942C85.4723 1.79223 85.4527 1.73705 85.437 1.69201C85.4178 1.63984 85.3852 1.56064 85.3619 1.51072C85.3334 1.44916 85.3034 1.39061 85.2696 1.33355C85.2433 1.28926 85.2144 1.24459 85.1851 1.20255C85.1168 1.10346 85.0462 1.01413 84.9678 0.93005C84.955 0.916162 84.9419 0.903025 84.9287 0.889888C84.8995 0.860235 84.8646 0.828705 84.8304 0.798677C84.8034 0.77503 84.7767 0.751758 84.7535 0.73224C84.7043 0.691702 84.6517 0.650789 84.6018 0.617007C84.4836 0.536682 84.3792 0.484508 84.3293 0.461612C84.2828 0.437965 84.2336 0.415819 84.1889 0.397427C83.9817 0.312597 83.7629 0.264177 83.5388 0.243157C83.4773 0.237152 83.4157 0.233398 83.3545 0.233398H28.1175C27.8367 0.233398 27.5616 0.286323 27.294 0.392172L12.8749 6.16207C12.8621 6.16807 12.8493 6.17258 12.8358 6.17821L1.89996 10.5544C1.84966 10.5743 1.80087 10.5965 1.7532 10.6209C1.69352 10.6509 1.63459 10.6854 1.57603 10.7215C1.47131 10.7856 1.33543 10.8754 1.19693 11.0067C1.08807 11.1103 1.01263 11.2087 0.970965 11.2631C0.901525 11.3539 0.809939 11.4815 0.731116 11.6448C0.66618 11.7781 0.628645 11.8941 0.605748 11.9691C0.57009 12.0866 0.544566 12.2071 0.527676 12.3227C0.513037 12.421 0.504028 12.5198 0.504028 12.6147V66.862C0.504028 68.0856 1.49983 69.0811 2.72385 69.0811H57.9583C58.2398 69.0811 58.5153 69.0289 58.7837 68.923L84.1784 58.7611C84.2606 58.7277 84.3398 58.688 84.4171 58.6444C84.5752 58.5555 84.7219 58.4534 84.8435 58.3419C84.9066 58.2841 84.9637 58.2259 85.0023 58.1805C85.0125 58.1685 85.0241 58.1565 85.035 58.1437C85.1498 58.0116 85.2463 57.8641 85.3244 57.7128C85.3574 57.6486 85.4017 57.5521 85.4268 57.4846C85.5233 57.2278 85.574 56.9647 85.574 56.6997V2.45322C85.574 2.35826 85.5665 2.27568 85.5586 2.20925C85.5515 2.13868 85.5424 2.06962 85.5278 2.00168Z" fill="#6E6E6E"/>
<path d="M85.3664 1.85677C85.3616 1.8335 85.3567 1.81135 85.351 1.78883C85.3447 1.76406 85.3379 1.73891 85.3304 1.71451C85.3109 1.64695 85.2914 1.5914 85.2752 1.54711C85.2565 1.49456 85.2238 1.41573 85.2005 1.36544C85.1724 1.30425 85.142 1.2457 85.1078 1.18827C85.0823 1.14473 85.053 1.09894 85.0241 1.05765C84.9558 0.957805 84.8849 0.868471 84.8064 0.785519C84.7936 0.771631 84.7805 0.758494 84.7674 0.744981C84.7381 0.715704 84.7039 0.683423 84.6694 0.653771C84.6428 0.629748 84.6157 0.606476 84.5928 0.587709C84.5433 0.54642 84.4911 0.505882 84.4412 0.472101C84.323 0.3914 84.2186 0.339602 84.1683 0.31633C84.1218 0.292683 84.073 0.270913 84.0279 0.25252C83.8204 0.168066 83.6023 0.116268 83.3774 0.098251C83.3163 0.0914947 83.2547 0.0888672 83.1939 0.0888672H27.9565C27.675 0.0888672 27.4002 0.141041 27.1322 0.247265L12.7131 6.01679C12.7003 6.02242 12.6876 6.0273 12.6748 6.03293L1.73821 10.4091V10.4095C1.68829 10.4294 1.63911 10.4512 1.59144 10.4756C1.53139 10.506 1.47283 10.5394 1.41465 10.5762C1.30881 10.6389 1.1733 10.7301 1.03555 10.8614C0.926322 10.965 0.850126 11.063 0.809588 11.1178C0.739022 11.2079 0.648187 11.3363 0.569739 11.4992C0.504428 11.6328 0.466893 11.7484 0.444747 11.8238C0.408338 11.9413 0.382063 12.0614 0.366299 12.1778C0.350909 12.2754 0.342651 12.3741 0.342651 12.4694V66.7167C0.342651 67.9407 1.33808 68.9361 2.5621 68.9361H57.7973C58.0788 68.9361 58.3539 68.8836 58.6219 68.7777L84.017 58.6155C84.0996 58.5825 84.1792 58.5438 84.2554 58.4991C84.4153 58.4128 84.5609 58.3085 84.6822 58.1966C84.7456 58.1395 84.8019 58.0806 84.8409 58.0352C84.8515 58.0232 84.8627 58.0112 84.8732 57.9984C84.9877 57.8659 85.0853 57.7188 85.163 57.5675C85.1964 57.5037 85.2403 57.4069 85.2658 57.3397C85.3634 57.0837 85.4126 56.8194 85.4126 56.5548V2.30794C85.4126 2.2126 85.4051 2.1304 85.3972 2.06396C85.3912 1.99377 85.3803 1.92396 85.3664 1.85677Z" fill="#606060"/>
<path d="M85.3664 1.85775C85.3616 1.83448 85.3567 1.81233 85.351 1.78981C85.3447 1.76504 85.3379 1.73989 85.3304 1.71549C85.3109 1.64793 85.2914 1.59237 85.2752 1.54808C85.2565 1.49553 85.2238 1.41671 85.2005 1.36641C85.1724 1.30523 85.142 1.24668 85.1078 1.18925C85.0823 1.14571 85.053 1.09991 85.0241 1.05862C84.9558 0.958781 84.8849 0.869448 84.8064 0.786495C84.7936 0.772607 84.7805 0.75947 84.7674 0.745958C84.7381 0.71668 84.7039 0.6844 84.6694 0.654747C84.6428 0.630725 84.6157 0.607453 84.5928 0.588685C84.5433 0.547397 84.4911 0.506859 84.4412 0.473077C84.323 0.392377 84.2186 0.340578 84.1683 0.317307C84.1218 0.293659 84.073 0.271889 84.0279 0.253497C83.8204 0.169043 83.6023 0.117244 83.3774 0.0992276C83.3163 0.0924712 83.2547 0.0898438 83.1939 0.0898438H27.9565C27.675 0.0898438 27.4002 0.142018 27.1322 0.248242L12.7131 6.01776C12.7003 6.02339 12.6876 6.02827 12.6748 6.0339L1.73821 10.4101V10.4105C1.68829 10.4304 1.63911 10.4522 1.59144 10.4766C1.53139 10.507 1.47283 10.5404 1.41465 10.5772C1.30881 10.6398 1.1733 10.731 1.03555 10.8624C0.926322 10.966 0.850126 11.064 0.809588 11.1188C0.739022 11.2089 0.648187 11.3372 0.569739 11.5001C0.504428 11.6338 0.466893 11.7494 0.444747 11.8248C0.408338 11.9423 0.382063 12.0624 0.366299 12.1788C0.350909 12.2764 0.342651 12.3751 0.342651 12.4704V66.7177C0.342651 67.9417 1.33808 68.9371 2.5621 68.9371H57.7973C58.0788 68.9371 58.3539 68.8846 58.6219 68.7787L84.017 58.6165C84.0996 58.5834 84.1792 58.5448 84.2554 58.5001C84.4153 58.4138 84.5609 58.3094 84.6822 58.1976C84.7456 58.1405 84.8019 58.0816 84.8409 58.0362C84.8515 58.0242 84.8627 58.0121 84.8732 57.9994C84.9877 57.8669 85.0853 57.7198 85.163 57.5685C85.1964 57.5047 85.2403 57.4078 85.2658 57.3406C85.3634 57.0847 85.4126 56.8204 85.4126 56.5558V2.30892C85.4126 2.21358 85.4051 2.13138 85.3972 2.06494C85.3912 1.99475 85.3803 1.92494 85.3664 1.85775Z" fill="white"/>
<path d="M83.1935 2.30859H27.9565V56.5558H83.1935V2.30859Z" fill="#F9A467"/>
<path d="M83.1935 56.9548H27.9564C27.7357 56.9548 27.5574 56.7754 27.5574 56.5554V2.30818C27.5574 2.08785 27.7361 1.90918 27.9564 1.90918H83.1935C83.4138 1.90918 83.5925 2.08785 83.5925 2.30818V56.5554C83.5921 56.7757 83.4138 56.9548 83.1935 56.9548ZM28.3558 56.1568H82.7945V2.70755H28.3558V56.1568Z" fill="#5F2D25"/>
<path d="M2.56207 66.7187L27.9565 56.5572V2.30957L2.56207 12.4715V66.7187Z" fill="#FED095"/>
<path d="M3.39496 13.036V65.4899L27.1243 55.9939V3.54004L3.39496 13.036Z" fill="#5E2C00"/>
<path d="M57.7972 12.4707H2.56207V66.7179H57.7972V12.4707Z" fill="#FED095"/>
<path d="M57.7972 67.1165H2.56208C2.34175 67.1165 2.16309 66.9382 2.16309 66.7175V12.4703C2.16309 12.2507 2.34175 12.0713 2.56208 12.0713H57.7972C58.0176 12.0713 58.1962 12.2507 58.1962 12.4703V66.7175C58.1962 66.9382 58.0176 67.1165 57.7972 67.1165ZM2.96146 66.3189H57.3983V12.8689H2.96146V66.3189Z" fill="#5F2D25"/>
<path d="M56.2103 65.5268H3.9903V34.0273L6.21162 63.1264L56.2103 65.5268Z" fill="#FED095"/>
<path d="M57.7973 66.7177L83.1935 56.5562V2.30859L57.7973 12.4705V66.7177Z" fill="#F9A467"/>
<path d="M57.7972 67.116C57.7188 67.116 57.6407 67.0935 57.5739 67.0473C57.4643 66.9734 57.3979 66.8499 57.3979 66.717V12.4698C57.3979 12.3069 57.4977 12.1605 57.649 12.0997L83.0448 1.93782C83.1665 1.88865 83.3065 1.90328 83.4168 1.97798C83.5264 2.05192 83.5917 2.17616 83.5917 2.30829V56.5555C83.5917 56.7188 83.4923 56.8648 83.341 56.9256L57.9459 67.0883C57.8982 67.1067 57.8479 67.116 57.7972 67.116ZM58.1962 12.74V66.1277L82.7945 56.2849V2.89759L58.1962 12.74Z" fill="#5F2D25"/>
<path d="M57.7972 12.4705L83.1935 2.30859H27.9564L2.56207 12.4705H57.7972Z" fill="#FED095"/>
<path d="M57.7972 12.8703H2.56207C2.37064 12.8703 2.20661 12.7351 2.1702 12.5475C2.13417 12.3594 2.23664 12.1725 2.41455 12.1012L27.8082 1.93928C27.8559 1.92014 27.9058 1.91113 27.9564 1.91113H83.1935C83.3849 1.91113 83.549 2.04701 83.5854 2.23469C83.6218 2.42236 83.5193 2.60929 83.3418 2.68023L57.9462 12.8425C57.8982 12.8613 57.8483 12.8703 57.7972 12.8703ZM4.63326 12.0726H57.7207L81.1231 2.70913H28.033L4.63326 12.0726Z" fill="#5F2D25"/>
<path d="M13.5369 8.07769L67.7613 8.4827V16.8654L69.4845 14.4136L70.4965 15.6444L71.5846 13.9767L72.4851 14.9902L73.4231 13.3638L74.3416 14.1509V5.84961H19.1068L13.5369 8.07769Z" fill="#DD815F"/>
<path d="M67.7613 17.2656C67.7208 17.2656 67.6802 17.2592 67.6404 17.2464C67.4749 17.1943 67.3627 17.04 67.3627 16.8666V8.88061L13.534 8.47785C13.3437 8.47635 13.1807 8.3401 13.1451 8.1528C13.1094 7.96512 13.2123 7.77895 13.3891 7.70838L18.9593 5.48068C19.0062 5.46153 19.0569 5.45215 19.1072 5.45215H74.3416C74.5619 5.45215 74.7406 5.63082 74.7406 5.85152V14.1528C74.7406 14.3086 74.6497 14.4508 74.509 14.5158C74.3675 14.5811 74.2012 14.5574 74.0822 14.4564L73.5286 13.9816L72.8312 15.1918C72.7674 15.3032 72.6533 15.3764 72.526 15.3896C72.395 15.4031 72.2719 15.3532 72.1871 15.2571L71.6334 14.6336L70.8298 15.864C70.7607 15.9699 70.6451 16.0371 70.5179 16.0438C70.394 16.0491 70.269 15.9969 70.1876 15.8989L69.5093 15.0731L68.0879 17.0959C68.0109 17.204 67.8885 17.2656 67.7613 17.2656ZM15.5706 7.69487L67.7643 8.08524C67.9831 8.08674 68.1603 8.26503 68.1603 8.48424V15.6058L69.158 14.1858C69.2297 14.0841 69.3449 14.0214 69.4695 14.0173C69.5968 14.0102 69.7131 14.0661 69.7931 14.1618L70.459 14.9726L71.2506 13.7602C71.3181 13.6558 71.4304 13.5898 71.555 13.5804C71.6845 13.5702 71.8001 13.6209 71.8827 13.7133L72.4153 14.3138L73.0778 13.1664C73.1367 13.0635 73.2392 12.9918 73.3555 12.9723C73.4749 12.9528 73.5931 12.9858 73.6825 13.0624L73.9422 13.2846V6.25015H19.1837L15.5706 7.69487Z" fill="#5F2D25"/>
<path d="M67.7614 8.4827V16.8654L69.4846 14.4136L70.4965 15.6444L71.5847 13.9767L72.4851 14.9902L73.4231 13.3638L74.3416 14.1509V5.84961L67.7614 8.4827Z" fill="#DD815F"/>
<path d="M67.7614 17.2657C67.7208 17.2657 67.6803 17.2593 67.6405 17.2465C67.475 17.1944 67.3627 17.0401 67.3627 16.8667V8.48434C67.3627 8.32144 67.4614 8.17506 67.6131 8.11425L74.1934 5.48078C74.315 5.43161 74.455 5.44625 74.5653 5.52095C74.6742 5.59489 74.7403 5.71876 74.7403 5.85126V14.1525C74.7403 14.3083 74.6494 14.4506 74.5087 14.5155C74.3672 14.5808 74.2009 14.5571 74.0819 14.4562L73.5282 13.9814L72.8308 15.1915C72.767 15.303 72.6529 15.3762 72.5257 15.3893C72.3947 15.4043 72.2716 15.3529 72.1867 15.2568L71.6331 14.6333L70.8295 15.8637C70.7604 15.9696 70.6448 16.0368 70.5176 16.0435C70.3937 16.0488 70.2687 15.9966 70.1872 15.8987L69.509 15.0729L68.0875 17.0956C68.011 17.2041 67.8886 17.2657 67.7614 17.2657ZM68.1604 8.7546V15.6059L69.158 14.1859C69.2297 14.0842 69.345 14.0215 69.4696 14.0174C69.5968 14.0103 69.7132 14.0662 69.7931 14.1619L70.459 14.9727L71.2506 13.7603C71.3182 13.6559 71.4304 13.5899 71.555 13.5805C71.6845 13.5704 71.8001 13.621 71.8827 13.7134L72.4153 14.3139L73.0778 13.1665C73.1368 13.0636 73.2392 12.9919 73.3556 12.9724C73.4749 12.9529 73.5932 12.9859 73.6825 13.0625L73.9423 13.2847V6.44056L68.1604 8.7546Z" fill="#5F2D25"/>
</g>
<defs>
<clipPath id="clip0_2108_3720">
<rect width="1106" height="71" fill="white"/>
</clipPath>
</defs>
</svg>
