<svg width="374" height="481" viewBox="0 0 374 481" fill="none" xmlns="http://www.w3.org/2000/svg">
<g clip-path="url(#clip0_2105_2954)">
<path d="M153.646 302.888C160.707 302.583 167.943 303.934 174.781 307.151C197.347 317.765 207.036 344.663 196.422 367.229C190.524 379.768 179.599 388.33 167.182 391.643C168.122 392.31 169.084 392.952 170.069 393.571C194.958 401.309 223.263 388.02 235.676 361.631C249.143 332.999 238.802 299.79 212.58 287.456C199.321 281.22 184.541 281.514 171.427 287.029C164.645 291.056 158.577 296.394 153.646 302.888Z" fill="#FFAC43"/>
<path d="M259.895 367.303C274.579 336.085 261.176 298.875 229.958 284.191C213.438 276.42 195.24 276.516 179.59 282.954C176.779 284.111 174.05 285.472 171.427 287.029C184.541 281.514 199.321 281.22 212.58 287.456C238.802 299.79 249.143 332.999 235.676 361.631C223.263 388.02 194.958 401.309 170.069 393.571C172.204 394.913 174.444 396.14 176.783 397.24C185.751 401.458 202.456 404.582 204.494 403.185C206.532 401.787 202.845 400.82 201.866 399.966C204.612 401.257 220.561 403.828 221.824 399.886C221.624 398.214 215.354 396.449 213.729 396.079C225.506 394.847 250.111 388.104 259.895 367.303Z" fill="#FFF3E9"/>
<path d="M230.886 282.218C263.192 297.415 277.063 335.924 261.867 368.231C256.705 379.206 247.667 386.394 238.537 390.977C232.828 393.842 227.026 395.717 221.989 396.876C222.361 397.121 222.751 397.417 223.084 397.776C223.415 398.134 223.83 398.703 223.964 399.472L223.988 399.627L224.002 399.861C224.005 400.094 223.97 400.328 223.899 400.551C223.512 401.759 222.615 402.524 221.754 402.991C220.901 403.453 219.904 403.725 218.926 403.892C216.96 404.228 214.562 404.223 212.25 404.063C210.475 403.939 208.679 403.718 207.052 403.455C206.74 404.161 206.172 404.676 205.726 404.982C205.271 405.294 204.778 405.441 204.42 405.521C204.033 405.608 203.622 405.655 203.216 405.679C202.404 405.728 201.437 405.696 200.388 405.611C198.281 405.439 195.63 405.031 192.801 404.454C187.165 403.303 180.56 401.425 175.856 399.213C172.32 397.55 169.004 395.606 165.922 393.421C165.233 392.932 164.888 392.089 165.038 391.258C165.187 390.426 165.804 389.755 166.621 389.537C178.443 386.383 188.837 378.234 194.449 366.301C204.551 344.825 195.331 319.225 173.854 309.123C167.342 306.06 160.457 304.775 153.74 305.066C152.897 305.102 152.108 304.648 151.716 303.9C151.324 303.151 151.4 302.243 151.91 301.57C169.969 277.783 202.773 268.995 230.886 282.218Z" stroke="#000072" stroke-width="4.35842" stroke-linejoin="round"/>
<path d="M125.772 271.426C195.831 280.881 256.831 257.386 262.018 218.948C263.357 209.027 260.847 199.081 255.181 189.62C259.141 167.43 252.884 137.854 249.261 125.84C248.362 122.723 247.304 119.656 246.093 116.646C242.078 106.661 236.391 97.3114 229.307 88.9223C224.151 82.8156 218.253 77.2179 211.722 72.2551C206.457 68.2545 200.779 64.6664 194.745 61.5567C182.887 55.4455 169.651 51.1822 155.459 49.2671C141.303 47.3567 127.444 47.9512 114.419 50.683C107.744 52.0828 101.288 54.0438 95.1221 56.5166C87.5281 59.5623 80.375 63.3843 73.7975 67.8902C64.7039 74.1198 56.7105 81.6565 50.1728 90.2561C48.1938 92.8593 46.3482 95.5598 44.6459 98.351C44.4433 98.6831 44.2427 99.0166 44.0442 99.3513C37.3658 109.975 23.5894 136.927 21.5261 159.373C17.865 162.303 10.0961 171.473 8.30978 184.71C3.1226 223.147 55.7121 261.972 125.772 271.426Z" fill="#FFAC43"/>
<path d="M249.261 125.84C258.947 104.132 274.734 57.2458 260.391 43.3671C257.515 41.1129 248.492 38.0291 235.406 43.7276C222.321 49.4262 202.847 57.9881 194.745 61.5567C200.779 64.6664 206.457 68.2545 211.722 72.2551L224.955 65.6336L245.501 55.3534C248.15 54.1559 253.688 52.0729 254.639 53.3209C255.828 54.881 263.694 72.6461 246.093 116.646C247.304 119.656 248.362 122.723 249.261 125.84Z" fill="#FFAC43"/>
<path d="M55.9237 15.774C38.4146 25.3542 41.0604 74.8518 44.6459 98.351C46.3482 95.5598 48.1938 92.8593 50.1728 90.2561C44.8646 43.165 57.2711 28.0855 58.8311 26.8964C60.0792 25.9452 64.8663 29.4215 67.1038 31.2785L84.1892 46.637L95.1221 56.5166C101.288 54.0438 107.744 52.0828 114.419 50.683C107.553 45.0945 91.0253 31.7076 79.9186 22.7443C68.812 13.781 59.2942 14.3627 55.9237 15.774Z" fill="#FFAC43"/>
<path d="M254.639 53.3209C253.688 52.0729 248.15 54.1559 245.501 55.3534L224.955 65.6336C229.555 67.3462 236.046 72.1787 225.209 77.8074C227.937 78.3312 233.533 80.4237 234.089 84.6041C234.644 88.7845 231.133 89.2248 229.307 88.9223C236.391 97.3114 242.078 106.661 246.093 116.646C263.694 72.6461 255.828 54.881 254.639 53.3209Z" fill="#FFF3E9"/>
<path d="M67.1038 31.2785C64.8663 29.4215 60.0792 25.9452 58.8311 26.8964C57.2711 28.0855 44.8646 43.165 50.1728 90.2561C56.7105 81.6565 64.7039 74.1198 73.7975 67.8902C71.9573 67.698 68.71 66.3915 70.3538 62.5078C71.9975 58.6242 77.9479 58.0899 80.7176 58.3081C71.7607 50.0082 79.3 47.0691 84.1892 46.637L67.1038 31.2785Z" fill="#FFF3E9"/>
<path d="M224.955 65.6336L211.722 72.2551C218.253 77.2179 224.151 82.8156 229.307 88.9223C231.133 89.2248 234.644 88.7845 234.089 84.6041C233.533 80.4237 227.937 78.3312 225.209 77.8074C236.046 72.1787 229.555 67.3462 224.955 65.6336Z" fill="#F3F3F3"/>
<path d="M95.1221 56.5166L84.1892 46.637C79.3 47.0691 71.7607 50.0082 80.7176 58.3081C77.9479 58.0899 71.9975 58.6242 70.3538 62.5078C68.71 66.3915 71.9573 67.698 73.7975 67.8902C80.375 63.3843 87.5281 59.5623 95.1221 56.5166Z" fill="#F2F2F2"/>
<path d="M184.1 115.931C182.811 120.595 185.714 123.662 187.326 124.612C191.588 127.661 197.544 129.015 200.226 128.827C202.909 128.639 204.778 125.868 203.873 122.173C202.313 115.805 198.866 112.426 193.27 111.121C190.75 110.781 185.389 111.267 184.1 115.931Z" fill="#FFF3E9"/>
<path d="M118.405 107.065C118.412 111.904 114.8 114.092 112.993 114.581C108.076 116.391 101.974 116.118 99.4373 115.226C96.9006 114.334 95.8326 111.166 97.6849 107.842C100.877 102.116 105.096 99.7719 110.838 99.997C113.358 100.337 118.398 102.227 118.405 107.065Z" fill="#FFF3E9"/>
<path d="M186.637 150.072C186.685 152.941 185.149 155.297 183.206 155.336C181.263 155.374 179.649 153.08 179.601 150.212C179.553 147.343 181.09 144.987 183.033 144.948C184.976 144.91 186.59 147.204 186.637 150.072Z" fill="#FFF3E9"/>
<path fill-rule="evenodd" clip-rule="evenodd" d="M197.987 152.848C198.143 162.228 193.093 169.935 186.706 170.062C180.32 170.188 175.016 162.687 174.859 153.307C174.703 143.926 179.753 136.219 186.14 136.093C192.526 135.966 197.83 143.467 197.987 152.848ZM183.206 155.336C185.149 155.297 186.685 152.941 186.637 150.072C186.59 147.204 184.976 144.91 183.033 144.948C181.09 144.987 179.553 147.343 179.601 150.212C179.649 153.08 181.263 155.374 183.206 155.336Z" fill="#222222"/>
<path d="M102.787 138.756C101.981 141.51 102.837 144.189 104.701 144.741C106.564 145.294 108.728 143.509 109.535 140.756C110.341 138.003 109.485 135.323 107.621 134.771C105.758 134.219 103.594 136.003 102.787 138.756Z" fill="#FFF3E9"/>
<path fill-rule="evenodd" clip-rule="evenodd" d="M91.108 138.424C88.4706 147.427 91.2974 156.197 97.4219 158.013C103.546 159.828 110.649 154 113.287 144.997C115.924 135.994 113.097 127.224 106.973 125.409C100.848 123.594 93.7453 129.421 91.108 138.424ZM104.701 144.741C102.837 144.189 101.981 141.51 102.787 138.756C103.594 136.003 105.758 134.219 107.621 134.771C109.485 135.323 110.341 138.003 109.535 140.756C108.728 143.509 106.564 145.294 104.701 144.741Z" fill="#222222"/>
<path d="M255.729 51.6863C254.777 50.4383 249.24 52.5213 246.59 53.7188L226.045 63.999L212.812 70.6205C219.343 75.5833 225.24 81.1809 230.397 87.2877C231.356 88.4232 232.289 89.5762 233.196 90.746C235.666 66.9105 250.182 57.078 257.131 55.1413C256.568 53.1442 255.989 52.0276 255.729 51.6863Z" fill="#D9D9D9"/>
<path d="M68.1935 29.6439C65.9559 27.7868 61.1689 24.3106 59.9208 25.2618C59.5799 25.5216 58.7212 26.4447 57.6425 28.22C63.312 31.1818 73.7737 43.6058 70.2647 69.6075C71.7713 68.4519 73.3127 67.3342 74.8871 66.2556C81.4646 61.7497 88.6177 57.9276 96.2118 54.882L85.2789 45.0024L68.1935 29.6439Z" fill="#D7D6E4"/>
<path d="M212.812 70.6205L226.045 63.999M226.045 63.999L246.59 53.7188C252.824 50.5996 256.215 53.3674 257.131 55.1412C260.795 62.2354 260.934 80.6361 247.183 115.011C245.105 109.843 242.578 104.845 239.642 100.062M226.045 63.999C227.267 64.164 232.895 64.2097 234.78 69.7195C236.751 75.4829 231.698 77.6468 226.923 74.9812C228.712 75.9801 232.335 77.3608 233.432 79.7078C235.351 83.815 233.5 86.2344 230.397 87.2877" stroke="#000072" stroke-width="4.35842" stroke-linecap="round" stroke-linejoin="round"/>
<path d="M126.316 271.29C196.376 280.745 257.376 257.25 262.563 218.812C263.902 208.891 261.391 198.945 255.725 189.484C248.126 176.795 209.598 169.729 173.492 184.918C168.317 180.021 153.796 170.948 139.414 169.008C125.032 167.067 108.861 173.282 102.573 176.632C69.3517 149.009 28.5549 154.047 22.0709 159.237C18.4098 162.167 10.6409 171.337 8.85457 184.574C3.66739 223.011 56.2569 261.836 126.316 271.29Z" fill="#FFF3E9"/>
<ellipse cx="237.791" cy="197.941" rx="2.59531" ry="8.82405" transform="rotate(42.6857 237.791 197.941)" fill="#F98183"/>
<ellipse cx="221.331" cy="195.72" rx="2.59531" ry="8.82405" transform="rotate(42.6857 221.331 195.72)" fill="#F98183"/>
<ellipse cx="202.812" cy="193.221" rx="2.59531" ry="8.82405" transform="rotate(42.6857 202.812 193.221)" fill="#F98183"/>
<ellipse cx="74.2126" cy="175.866" rx="2.59531" ry="8.82405" transform="rotate(42.6857 74.2126 175.866)" fill="#F98183"/>
<ellipse cx="57.7518" cy="173.644" rx="2.59531" ry="8.82405" transform="rotate(42.6857 57.7518 173.644)" fill="#F98183"/>
<ellipse cx="39.2335" cy="171.145" rx="2.59531" ry="8.82405" transform="rotate(42.6857 39.2335 171.145)" fill="#F98183"/>
<path d="M125.772 272.989C195.831 282.443 256.831 258.948 262.018 220.511C253.636 239.146 214.82 273.442 126.612 261.538C38.403 249.634 10.9901 206.401 8.30975 186.272C3.12258 224.71 55.7121 263.534 125.772 272.989Z" fill="#DCDAE8"/>
<path d="M97.3974 55.0453L86.3926 45.1528M86.3926 45.1528L69.3072 29.7943C64.1233 25.1343 60.1202 26.9043 58.7666 28.3718C53.3531 34.241 48.3418 51.9467 52.4888 88.7369C55.8626 84.3044 59.6234 80.1547 63.7222 76.3212M86.3926 45.1528C85.1701 44.9878 79.7313 43.5401 76.454 48.3533C73.0258 53.3881 77.3241 56.8139 82.6349 55.5094C80.6448 55.9983 76.7858 56.3693 75.106 58.3416C72.1664 61.7931 73.3099 64.6166 76.023 66.4548" stroke="#000072" stroke-width="4.35842" stroke-linecap="round" stroke-linejoin="round"/>
<path d="M235.029 41.6084C248.303 35.8276 258.063 38.489 261.999 41.2778L262.361 41.5475L262.457 41.6224L262.543 41.706C266.744 45.7711 268.519 52.0099 268.918 58.9232C269.32 65.8935 268.348 73.9553 266.645 82.1383C263.317 98.1306 257.102 115.01 252.261 125.994C254.079 132.214 256.43 142.331 257.902 153.615C259.4 165.098 260.008 177.945 258.145 189.176C263.721 198.78 266.239 208.987 264.853 219.257C262.094 239.701 244.591 255.678 219.598 265.304C194.515 274.966 161.347 278.487 126.007 273.718C90.6677 268.948 59.6203 256.761 37.9953 240.797C16.4477 224.889 3.80499 204.844 6.56381 184.401C8.3311 171.305 15.6385 161.969 19.8633 158.214C21.0538 146.918 25.0141 134.708 29.4664 124.039C34.0404 113.078 39.1982 103.59 42.6067 98.1614C42.6651 98.063 42.7247 97.9652 42.7835 97.867C41.0271 85.987 39.5445 68.0278 40.6122 51.692C41.1582 43.3372 42.3772 35.2938 44.6265 28.6705C46.8572 22.1023 50.2312 16.5518 55.3586 13.7462L55.4649 13.6886L55.5757 13.6415C59.8795 11.8395 70.2848 11.5593 81.9156 20.9456C92.5889 29.5591 108.267 42.2575 115.572 48.1984C128.538 45.6039 142.287 45.0831 156.314 46.976C170.376 48.8737 183.524 53.037 195.362 58.9997C203.977 55.2062 222.451 47.0856 235.029 41.6084Z" stroke="#000072" stroke-width="4.62336"/>
<path d="M153.975 176.513C153.233 182.011 142.411 186.149 137.644 186.905C133.248 184.912 123.91 178.054 124.652 172.556C125.161 168.778 135.932 168.48 140.055 169.036C144.179 169.593 154.485 172.735 153.975 176.513Z" fill="#05027A"/>
<ellipse cx="139.164" cy="172.182" rx="6.01036" ry="1.84934" transform="rotate(7.68571 139.164 172.182)" fill="#8382BD"/>
<path d="M219.27 98.004C207.125 102.679 184.662 106.943 151.946 102.528C118.19 97.9727 96.4774 87.2756 85.5598 79.3609C83.6891 78.0047 82.7297 76.5039 82.3809 74.991C78.6689 82.3697 87.1667 99.8255 150.854 110.619C202.482 117.586 229.674 107.512 223.776 94.0725C223.139 95.5644 221.766 96.9561 219.27 98.004Z" fill="#9C9C9C" fill-opacity="0.2"/>
<path d="M87.6642 25.7401L92.4996 59.0495C103.992 62.622 123.086 75.7734 154.976 80.0769C186.865 84.3804 204.024 78.4541 215.9 78.0351L231.075 45.0936C225.494 39.2085 209.276 16.4928 164.374 10.4332C119.472 4.37364 94.6062 21.5451 87.6642 25.7401Z" fill="white"/>
<path d="M154.976 80.0769C123.086 75.7734 103.992 62.622 92.4996 59.0495L85.6903 66.2948C82.878 69.2725 79.6105 75.0476 85.5598 79.3606C96.4774 87.2754 118.19 97.9724 151.946 102.528C184.662 106.943 207.125 102.679 219.27 98.0037C226.787 94.8485 224.119 88.5768 221.845 85.8353L215.9 78.0351C204.024 78.4541 186.865 84.3804 154.976 80.0769Z" fill="#00A74A"/>
<path d="M92.4996 59.0495L87.6642 25.7401C94.6062 21.5451 119.472 4.37364 164.374 10.4332C209.276 16.4928 225.494 39.2085 231.075 45.0936L215.9 78.0351M92.4996 59.0495C103.992 62.622 123.086 75.7734 154.976 80.0769C186.865 84.3805 204.024 78.4541 215.9 78.0351M92.4996 59.0495L85.6903 66.2948C82.878 69.2725 79.6105 75.0476 85.5598 79.3606C96.4774 87.2754 118.19 97.9724 151.946 102.528C184.662 106.943 207.125 102.679 219.27 98.0037C226.787 94.8485 224.119 88.5768 221.845 85.8353L215.9 78.0351" stroke="#000072" stroke-width="4.62336" stroke-miterlimit="1.55572"/>
<path d="M166.661 31.4977C167.313 28.6962 166.069 27.7865 164.648 27.3214C163.227 26.8563 161.178 27.2826 160.439 29.2913C160.258 27.1584 158.395 26.2043 156.902 26.2761C155.408 26.3478 154.121 26.916 154.007 29.7899C153.924 31.8723 156.923 36.1181 158.67 38.3455C154.585 34.3582 151.13 33.4955 149.913 33.5625C147.042 33.728 146.52 35.178 146.475 36.6724C146.43 38.1669 147.417 40.0123 149.552 40.1551C147.557 40.9303 147.167 42.9864 147.657 44.3989C148.148 45.8114 149.056 46.8859 151.845 46.1849C153.994 45.645 157.453 41.1269 158.984 38.9304C158.244 41.2254 157.333 47.2083 159.614 52.7638L161.416 53.007C160.399 51.1907 158.532 45.8973 159.216 39.2112C160.129 41.7703 162.237 46.9257 164.141 48.002C166.645 49.4174 167.806 48.6221 168.653 47.3901C169.5 46.158 169.669 44.0721 167.951 42.7958C170.048 43.2242 171.489 41.7065 171.842 40.2535C172.194 38.8005 172.075 37.2641 169.35 36.3433C167.295 35.6487 162.051 37.6069 159.506 38.6536C161.731 37.0448 166.169 33.6151 166.661 31.4977Z" fill="#00A842"/>
<path d="M136.588 57.3091C138.502 55.6671 142.796 52.3368 144.664 52.1516C146.999 51.9201 149.676 53.4918 152.393 53.8976C155.111 54.3034 162.087 54.1124 161.59 57.7938C161.093 61.4751 155.726 59.5795 151.736 58.7677M164.184 57.0896L171.918 54.463C172.795 54.23 174.647 54.0894 175.034 55.3911C175.517 57.0181 175.636 57.5809 174.269 58.4506C173.176 59.1465 164.819 62.3164 160.777 63.8143C159.368 64.1317 155.584 64.566 151.726 63.7641C147.867 62.9623 146.135 62.6583 145.752 62.6065C145.127 62.5092 143.603 62.4962 142.506 63.2227C141.408 63.9492 140.354 64.7024 139.964 64.9882" stroke="#00A842" stroke-width="1.08346" stroke-linecap="round"/>
<path d="M133.587 193.871L134.766 185.137L141.317 186.021L140.138 194.755L133.587 193.871Z" fill="#05027A"/>
<path d="M113.6 187.398C115.66 187.278 117.813 187.862 120.018 189.143C123.945 191.425 127.491 193.95 132.486 195.644C137.353 197.294 143.631 198.13 152.554 196.53L152.721 196.5L152.889 196.491C158.319 196.201 163.479 198.752 166.265 203.22C169.118 207.795 169.223 213.927 165.455 220.228L165.389 220.338L165.313 220.442C162.754 223.926 156.907 228.484 148.3 229.754C143.292 230.494 137.403 230.111 130.749 227.82C123.737 225.407 118.267 223.128 114.151 220.58C109.843 217.913 106.878 214.865 105.2 210.93C103.549 207.057 103.286 202.645 103.736 197.528L103.755 197.31L103.809 197.098C104.379 194.847 105.797 191.574 108.428 189.446C109.797 188.338 111.529 187.519 113.6 187.398Z" fill="#000072" stroke="#05027A" stroke-width="5.45388"/>
<path d="M153.035 199.214C134.015 202.518 126.048 195.802 118.648 191.502C116.415 201.932 134.025 205.845 143.109 206.497C143.285 209.273 144.875 210.404 145.648 210.623C148.84 209.403 151.903 202.509 153.035 199.214C154.11 198.944 150.304 199.901 153.035 199.214Z" fill="#FFF3E9"/>
<path d="M153.035 199.214C134.015 202.518 126.048 195.802 118.648 191.502C116.415 201.932 134.025 205.845 143.109 206.497C143.285 209.273 144.875 210.404 145.648 210.623C148.84 209.403 151.903 202.509 153.035 199.214ZM153.035 199.214C154.11 198.944 150.304 199.901 153.035 199.214Z" stroke="#05027A" stroke-width="0.681736"/>
<path d="M131.636 225.243C137.9 227.399 143.347 227.729 147.901 227.057C148.219 224.705 146.999 219.473 139.578 217.371C137.356 216.842 132.515 216.693 130.923 220.331C130.82 219.4 130.861 217.227 131.854 215.985C128.366 213.795 119.754 214.388 115.586 218.261C119.437 220.645 124.673 222.845 131.636 225.243Z" fill="#F28475" stroke="#05027A" stroke-width="0.681736"/>
<path d="M107.781 279.819C102.272 284.282 97.4729 287.609 97.4729 287.609L91.2009 299.403C91.2009 299.403 86.6576 301.645 79.6364 303.991C63.6875 309.324 34.9579 315.201 17.8054 296.523C3.87509 281.35 8.31211 264.454 15.1624 252.667C19.627 244.988 25.1095 239.472 27.2068 238.019C41.9529 228.552 38.4686 255.217 59.2365 262.094C64.6672 263.889 70.998 263.935 77.5656 263.172C94.5536 261.207 108.712 258.326 117.14 262.094C124.543 265.408 117.3 272.094 107.781 279.819Z" fill="#FFAD40"/>
<path d="M79.6364 303.991C63.6875 309.324 34.9578 315.201 17.8054 296.523C3.87501 281.349 8.31205 264.454 15.163 252.666C13.0529 264.25 13.2365 283.112 33.6628 291.27C51.5048 298.397 76.1264 283.453 76.1264 283.453L79.6364 303.991Z" fill="#FF9343"/>
<path d="M50.4281 311.815C35.9368 311.815 24.1635 307.225 15.9241 298.253C8.41343 290.075 5.19089 280.66 6.34533 270.269C8.24168 253.202 21.4184 238.916 25.7461 235.913C25.7711 235.896 25.7966 235.879 25.8226 235.862C29.1242 233.743 31.9935 233.028 34.5935 233.678C38.7382 234.714 41.0171 238.782 43.656 243.494C47.118 249.676 51.0423 256.683 60.0405 259.661C68.1604 262.348 78.8466 260.757 89.0827 258.615C93.2232 259.738 90.2631 262.679 88.2655 264.008C77.9364 266.084 67.2108 267.427 58.4324 264.521C47.5475 260.918 42.7172 252.293 39.1904 245.995C37.1312 242.319 35.3529 239.144 33.3531 238.644C32.2201 238.363 30.6301 238.866 28.6284 240.144C25.4017 242.417 13.1204 255.648 11.4326 270.835C10.4489 279.691 13.2283 287.75 19.694 294.791C42.8209 319.973 89.5969 297.339 90.0671 297.107C91.334 296.483 92.8692 297.004 93.4941 298.271C94.1189 299.539 93.598 301.074 92.3299 301.698C91.8193 301.95 79.6467 307.894 64.1996 310.567C59.3795 311.4 54.7801 311.815 50.4281 311.815Z" fill="#000072"/>
<path d="M108.096 444.635C108.274 448.093 108.346 451.137 108.11 453.439C107.077 463.483 98.5837 472.958 88.906 474.679C79.998 476.271 69.7356 475.869 61.518 474.095C55.397 472.766 52.7546 467.678 52.8397 462.741C52.8525 461.702 52.9908 460.676 53.2408 459.69C54.6215 454.208 58.6906 450.782 62.3982 448.389C62.3528 448.297 62.3131 448.205 62.2734 448.106C58.5396 439.908 53.9241 421.862 51.9189 402.382C50.4928 388.557 50.3808 374.002 52.8332 361.728L112.198 406.341C105.486 414.236 107.452 432.138 108.096 444.635Z" fill="#FFAD40"/>
<path d="M108.096 444.635C108.273 448.093 108.346 451.137 108.11 453.438C107.077 463.483 98.5835 472.957 88.9059 474.679C79.9979 476.27 69.7355 475.869 61.5179 474.094C55.3969 472.766 52.7545 467.678 52.8396 462.74C56.8109 465.482 65.1423 468.236 79.1431 467.71C100.692 466.902 102.817 460.17 100.601 437.804C99.0236 421.823 70.8531 425.997 51.919 402.382C50.4929 388.557 50.3809 374.002 52.8332 361.728L112.198 406.341C105.486 414.236 107.452 432.137 108.096 444.635Z" fill="#FF9343"/>
<path d="M108.109 453.438C107.077 463.483 98.5832 472.957 88.9056 474.679C79.9976 476.271 69.7352 475.869 61.5182 474.094C60.9526 473.969 60.4197 473.818 59.9135 473.633C59.6244 473.528 59.3479 473.417 59.085 473.292C58.7171 473.127 58.3684 472.95 58.0395 472.752C57.7503 472.582 57.4739 472.398 57.218 472.207C56.8238 471.925 56.4617 471.615 56.1264 471.28C56.0146 471.175 55.9032 471.063 55.7977 470.945C54.4177 469.465 53.5367 467.632 53.1226 465.692C52.9185 464.726 52.8264 463.74 52.8391 462.753C52.8328 462.747 52.8391 462.74 52.8391 462.74C56.8104 465.481 65.1399 468.236 79.1432 467.71C96.4332 467.066 101.219 462.595 101.292 449.302C104.48 448.639 106.636 446.857 108.095 444.635C108.274 448.093 108.346 451.137 108.109 453.438Z" fill="#FF9343"/>
<path d="M108.109 453.438C107.077 463.482 98.5832 472.957 88.9055 474.678C79.9975 476.27 69.7351 475.869 61.5181 474.094C54.115 472.49 51.8008 465.369 53.2404 459.689C54.621 454.207 58.6908 450.782 62.3985 448.388C62.3525 448.296 62.3134 448.204 62.2731 448.106C69.4984 445.66 78.9987 444.97 92.2913 448.665C100.865 451.045 105.552 448.52 108.096 444.635C108.274 448.093 108.346 451.136 108.109 453.438Z" fill="#FFF3E9"/>
<path d="M108.109 453.438C107.077 463.483 98.5832 472.957 88.9056 474.679C79.9976 476.271 69.7352 475.869 61.5182 474.094C60.9526 473.969 60.4197 473.818 59.9135 473.633C59.6244 473.528 59.3479 473.417 59.085 473.292C58.7171 473.127 58.3684 472.95 58.0395 472.752C57.7503 472.582 57.4739 472.398 57.218 472.207C56.8238 471.925 56.4617 471.615 56.1264 471.28C56.0146 471.175 55.9032 471.063 55.7977 470.945C54.4177 469.465 53.5367 467.632 53.1226 465.692C52.9185 464.726 52.82 463.74 52.8391 462.753C52.8328 462.747 52.8391 462.74 52.8391 462.74C56.8104 465.481 65.1399 468.236 79.1432 467.71C96.4332 467.066 101.219 462.595 101.292 449.302C104.48 448.639 106.636 446.857 108.095 444.635C108.274 448.093 108.346 451.137 108.109 453.438Z" fill="#F9D3B7"/>
<path d="M76.9718 478.231C71.5339 478.231 66.002 477.681 60.9792 476.594C57.2641 475.791 54.2991 473.752 52.4047 470.698C50.3636 467.407 49.7473 463.057 50.7562 459.06C52.1656 453.475 55.913 449.859 59.2102 447.468C52.7914 431.688 44.5112 390.351 50.3255 361.225C50.6023 359.839 51.9482 358.939 53.3361 359.216C54.7222 359.493 55.6218 360.841 55.3448 362.227C49.4767 391.624 58.459 433.853 64.7187 447.311C65.2575 448.469 64.8597 449.847 63.7861 450.54C60.6708 452.551 56.9387 455.479 55.7193 460.313C55.0428 462.991 55.43 465.865 56.7543 468C57.9162 469.873 59.7019 471.081 62.0617 471.591C70.4251 473.402 80.2932 473.615 88.4594 472.161C96.9682 470.647 104.642 462.129 105.565 453.173C105.876 450.161 105.593 445.457 105.294 440.478C104.545 428.01 103.613 412.492 110.247 404.682C111.161 403.604 112.776 403.472 113.854 404.388C114.931 405.302 115.063 406.917 114.148 407.995C108.845 414.238 109.709 428.617 110.403 440.171C110.729 445.59 111.01 450.27 110.656 453.697C109.496 464.958 100.14 475.281 89.356 477.201C85.4832 477.89 81.2564 478.231 76.9718 478.231Z" fill="#000072"/>
<path d="M100.725 255.701C116.323 262.542 169.527 267.018 169.527 267.018C165 312.662 188.332 330.61 174.995 384.086C166.945 416.36 115.571 428.226 75.0424 410.459C57.737 402.871 34.5141 378.823 48.9776 332.341C54.1861 315.604 65.7865 297.963 76.1255 283.454L87.8429 266.096L100.725 255.701Z" fill="#FFAD40"/>
<path d="M169.526 267.018C169.223 270.082 169.046 273.021 168.974 275.855C158.777 280.219 146.148 282.803 132.467 282.803C113.454 282.803 96.4598 277.813 85.2243 269.977L87.8411 266.098L100.727 255.704C117.412 259.819 169.526 267.018 169.526 267.018Z" fill="#FF9343"/>
<path d="M177.54 371.765C176.915 375.664 176.074 379.759 174.996 384.085C166.943 416.358 115.572 428.225 75.0409 410.461C62.0831 404.781 45.8059 389.871 44.5295 363.205C50.1643 381.16 64.3423 393.35 74.888 398.354C109.693 414.868 166.87 403.4 177.54 371.765Z" fill="#FF9343"/>
<path d="M176.212 378.819C176.212 378.826 176.212 378.833 176.205 378.839C176.067 379.517 175.916 380.193 175.758 380.884C175.752 380.904 175.752 380.923 175.746 380.943C175.508 381.976 175.259 383.027 174.996 384.085C169.815 404.841 146.727 417.161 120.121 418.581C119.443 415.728 119.01 412.875 118.779 410.106L129.39 404.328C147.818 401.099 164.484 392.928 173.096 380.515L176.212 378.819Z" fill="#FF9343"/>
<path d="M169.526 267.018C169.381 268.498 168.101 268.808 168.01 270.235C155.381 279.774 145.372 295.294 148.521 320.355C152.38 351.063 167.778 375.036 133.901 398.355C111.359 413.87 48.2814 401.256 52.4574 354.153C56.2246 311.675 88.7476 295.541 92.2518 262.616L100.727 255.704C113.599 258.729 169.526 267.018 169.526 267.018Z" fill="#FFF3E9"/>
<path d="M183.606 262.816C183.461 264.296 180.974 271.469 180.882 272.895C177.424 275.505 161.288 275.908 158.442 279.483C150.559 281.614 141.75 282.804 132.467 282.804C116.025 282.804 101.094 279.07 90.0963 272.995C91.1213 269.701 85.153 262.107 85.5414 258.458L99.7063 256.823C158.817 267.992 183.606 262.816 183.606 262.816Z" fill="#DCDAE8"/>
<path d="M90.0963 272.995C91.1213 269.701 85.153 262.107 85.5414 258.458L81.183 266.63L90.0963 272.995Z" fill="#DCDAE8"/>
<path d="M15.8075 298.476C24.0469 307.447 35.8203 312.037 50.3115 312.037C51.8544 312.037 53.4285 311.985 55.0324 311.881L58.3013 306.417C44.8173 307.954 29.8599 306.21 19.5774 295.014C13.1118 287.973 10.3323 279.913 11.316 271.058C13.0038 255.87 25.2851 242.64 28.5118 240.366C30.5135 239.089 32.1036 238.586 33.2366 238.867C35.2363 239.367 37.0147 242.542 39.0738 246.218L39.074 246.218C42.6009 252.516 47.4311 261.141 58.3158 264.743C67.0943 267.649 77.8199 266.307 88.1489 264.231C90.1465 262.901 92.9507 262.033 88.8102 260.909C78.5741 263.051 68.0439 262.571 59.924 259.884C50.9257 256.905 47.0014 249.899 43.5394 243.717C40.9006 239.005 38.6216 234.936 34.4769 233.901C31.8769 233.251 29.0076 233.965 25.706 236.085C25.68 236.101 25.6545 236.118 25.6296 236.136C21.3018 239.139 8.1251 253.425 6.22875 270.492C5.07431 280.883 8.29686 290.298 15.8075 298.476Z" fill="#000072"/>
<path d="M171.498 278.893C171.517 282.769 171.716 286.643 172.104 290.507C172.876 298.239 174.473 305.898 176.198 313.618C177.924 321.335 179.721 329.173 180.723 337.202C181.231 341.211 181.578 345.253 181.691 349.308C181.789 353.362 181.683 357.42 181.394 361.462L181.112 364.485C181.028 365.495 180.906 366.498 180.768 367.5L180.371 370.507L179.88 373.497L179.631 374.991L179.337 376.475L178.747 379.443C178.538 380.428 178.298 381.406 178.075 382.388L177.734 383.86C177.622 384.348 177.51 384.838 177.36 385.361C176.267 389.478 174.452 393.406 172.073 396.917C169.697 400.435 166.782 403.544 163.554 406.205C157.078 411.542 149.482 415.166 141.653 417.575C133.8 419.973 125.653 421.161 117.512 421.386C109.366 421.601 101.207 420.849 93.2422 419.15C89.2587 418.305 85.3266 417.214 81.4698 415.895C79.5389 415.241 77.6354 414.505 75.7475 413.735C73.8908 412.969 71.9208 412.088 70.0993 411.068C62.7595 407.011 56.4626 401.214 51.7485 394.318C49.3954 390.87 47.4374 387.155 45.9155 383.277C44.4055 379.395 43.3275 375.358 42.6519 371.274C41.2962 363.094 41.561 354.772 42.8483 346.726C43.501 342.699 44.3965 338.724 45.508 334.825C46.5861 330.933 47.9635 327.036 49.5329 323.306C52.6775 315.818 56.5388 308.727 60.8325 301.959C62.9834 298.577 65.2657 295.291 67.6393 292.081C70.0155 288.872 72.4833 285.739 75.0834 282.713C75.5453 282.174 76.3559 282.111 76.8946 282.573C77.3739 282.984 77.4749 283.672 77.1677 284.198C73.1524 291.051 68.9489 297.722 65.0051 304.508C61.0556 311.279 57.2744 318.139 54.3306 325.302C52.847 328.888 51.593 332.487 50.5706 336.243C49.529 339.974 48.6986 343.752 48.1023 347.555C46.9251 355.155 46.7369 362.896 48.0166 370.373C49.2809 377.841 52.0499 385.011 56.2874 391.217C60.5133 397.416 66.2017 402.648 72.7442 406.267C74.384 407.184 76.0385 407.926 77.8441 408.676C79.626 409.402 81.4219 410.099 83.2459 410.719C86.8903 411.967 90.612 413.003 94.3842 413.805C101.927 415.415 109.665 416.163 117.372 415.973C125.075 415.781 132.764 414.672 140.091 412.454C147.397 410.23 154.386 406.882 160.184 402.121C163.078 399.749 165.643 397.015 167.715 393.964C169.789 390.916 171.353 387.55 172.304 384.005C172.43 383.575 172.541 383.1 172.651 382.622L172.985 381.197C173.203 380.248 173.439 379.3 173.644 378.348L174.219 375.484L174.508 374.053L174.749 372.615L175.231 369.737L175.619 366.849C175.755 365.887 175.874 364.924 175.956 363.958L176.235 361.061C176.52 357.194 176.631 353.319 176.547 349.446C176.448 345.573 176.13 341.705 175.645 337.849C174.684 330.131 172.938 322.483 171.202 314.731C169.472 306.983 167.817 299.086 167.012 291.026C166.607 287 166.398 282.949 166.38 278.897C166.379 276.985 166.623 275.619 166.717 273.712L171.65 273.167C171.553 275.074 171.498 276.983 171.498 278.893Z" fill="#000072"/>
<path d="M79.0519 461.046C78.1281 461.687 77.4389 463.074 77.1382 464.471C76.8247 465.883 76.833 467.386 77.1721 468.71C77.5087 470.039 78.1907 471.147 79.1018 471.841C80.0007 472.556 81.1779 472.881 82.485 472.961C83.8989 473.048 84.975 474.265 84.8881 475.679C84.8004 477.093 83.5842 478.169 82.1702 478.082C82.0608 478.075 81.9539 478.062 81.849 478.041L81.8241 478.037C80.7966 477.835 79.7615 477.532 78.7659 477.058C77.7703 476.588 76.8318 475.92 76.0479 475.117C74.456 473.497 73.6217 471.373 73.3908 469.37C73.1548 467.349 73.4189 465.379 74.0766 463.544C74.41 462.627 74.8502 461.74 75.4393 460.915C76.028 460.097 76.7996 459.323 77.8251 458.799C78.4533 458.478 79.2237 458.728 79.5449 459.356C79.8391 459.934 79.6529 460.629 79.1354 460.987L79.0519 461.046Z" fill="#000072"/>
<path d="M66.0112 459.264C64.8762 460.173 64.0828 461.416 63.6561 462.794C63.2261 464.171 63.1475 465.673 63.3726 467.096C63.5965 468.517 64.1372 469.878 64.9191 470.88C65.7048 471.895 66.6709 472.453 67.6184 472.539C69.0337 472.668 70.0766 473.919 69.9472 475.334C69.8186 476.75 68.5672 477.792 67.152 477.664C67.0208 477.652 66.8928 477.63 66.7688 477.6L66.5736 477.55C65.3734 477.246 64.2498 476.658 63.3393 475.906C62.4238 475.153 61.7085 474.256 61.1633 473.32C60.0782 471.435 59.6143 469.408 59.5471 467.417C59.4909 465.426 59.8509 463.434 60.6815 461.616C61.5023 459.803 62.8593 458.184 64.5657 457.152C65.1715 456.786 65.9598 456.98 66.3257 457.585C66.6628 458.142 66.526 458.853 66.03 459.249L66.0112 459.264Z" fill="#000072"/>
<path d="M182.714 474.336C176.245 479.333 158.035 480.109 150.461 474.508C146.339 471.464 144.879 464.6 145.543 458.275C145.879 455.113 146.74 452.09 148.062 449.749C148.081 449.696 148.114 449.65 148.14 449.598C142.342 447.895 137.575 445.226 133.69 441.912C133.69 441.906 133.683 441.906 133.683 441.906C128.819 437.764 125.341 432.629 122.955 427.153C120.535 421.592 119.24 415.674 118.78 410.106L129.39 404.328L173.096 380.515L176.212 378.819C176.212 378.826 176.212 378.833 176.206 378.839C176.088 379.339 175.976 379.832 175.877 380.318C175.838 380.509 175.798 380.693 175.759 380.884C175.752 380.904 175.752 380.923 175.745 380.943C175.745 380.956 175.74 380.975 175.74 380.995C173.504 392.165 174.944 401.224 177.679 409.205C180.012 416.03 183.299 422.072 186.034 427.968C186.251 428.422 186.461 428.882 186.666 429.336C187.816 431.88 188.841 434.412 189.624 436.982C189.756 437.415 189.881 437.85 189.999 438.283C194.087 452.984 191.497 467.552 182.714 474.336Z" fill="#FFAD40"/>
<path d="M189.998 438.283L176.942 454.39L145.544 458.276C145.879 455.114 146.74 452.09 148.061 449.749C148.08 449.697 148.114 449.651 148.14 449.598C142.342 447.895 137.575 445.227 133.69 441.913C144.873 448.112 177.816 450.229 186.034 427.969C186.251 428.422 186.461 428.883 186.665 429.337C187.816 431.88 188.841 434.412 189.623 436.982C189.755 437.416 189.88 437.85 189.998 438.283Z" fill="#FF9343"/>
<path d="M177.678 409.205C172.496 398.354 131.735 409.685 121.681 423.909C120.067 419.327 119.151 414.603 118.779 410.105L129.39 404.327C147.818 401.098 164.484 392.927 173.096 380.515L176.212 378.818C176.212 378.825 176.212 378.831 176.205 378.838C176.087 379.337 175.975 379.831 175.877 380.318C175.838 380.508 175.798 380.692 175.758 380.882C175.752 380.903 175.752 380.922 175.746 380.942C175.746 380.955 175.739 380.975 175.739 380.994C173.504 392.164 174.944 401.223 177.678 409.205Z" fill="#FF9343"/>
<path d="M191.563 456.934C190.616 464.284 187.631 470.536 182.714 474.336C176.245 479.333 158.035 480.109 150.461 474.508C144.281 469.945 144.084 456.77 148.061 449.749C154.707 450.603 184.318 452.379 186.665 429.336C187.816 431.88 188.841 434.412 189.623 436.982C189.82 437.62 189.998 438.264 190.169 438.901C191.833 445.154 192.279 451.36 191.563 456.934Z" fill="#FFF3E9"/>
<path d="M191.563 456.934C190.616 464.284 187.631 470.536 182.714 474.336C176.245 479.333 158.035 480.109 150.461 474.508C144.281 469.945 144.084 456.77 148.061 449.749C154.707 450.603 184.318 452.379 186.665 429.336C187.816 431.88 188.841 434.412 189.623 436.982C189.82 437.62 182.202 451.607 164.878 455.495C160.481 456.482 151.999 456.652 147.279 455.435C143.262 467.966 151.538 472.049 162.86 472.897C174.825 473.791 186.093 468.393 191.563 456.934Z" fill="#F9D3B7"/>
<path d="M178.705 379.413C177.19 385.712 176.781 392.199 177.684 398.541C178.151 401.71 178.916 404.84 179.947 407.914C180.976 410.99 182.245 414.01 183.643 417.018C185.034 420.031 186.549 423.031 188.006 426.127C189.462 429.218 190.867 432.415 191.938 435.812C194.041 442.544 194.972 449.703 194.147 456.854C193.721 460.42 192.832 463.987 191.278 467.347C189.741 470.701 187.46 473.847 184.441 476.231C182.792 477.528 180.988 478.344 179.24 478.959C177.476 479.581 175.707 480 173.933 480.307C170.385 480.914 166.824 481.089 163.255 480.872C159.69 480.625 156.097 480.045 152.57 478.589C150.821 477.829 149.06 476.897 147.493 475.294C146.022 473.743 145.019 471.942 144.341 470.129C142.99 466.483 142.676 462.751 142.904 459.087C143.035 457.253 143.316 455.429 143.794 453.624C144.272 451.822 144.941 450.033 145.925 448.312L145.926 448.311L147.418 452.051C142.982 450.738 138.695 448.753 134.858 446.065C131.021 443.387 127.636 440.036 124.937 436.226C122.238 432.41 120.271 428.135 119.016 423.72C117.773 419.302 117.204 414.724 117.502 410.208C117.549 409.495 118.165 408.956 118.878 409.002C119.455 409.041 119.917 409.449 120.049 409.982L120.052 409.997C121.088 414.202 122.201 418.277 123.697 422.176C125.181 426.071 127.034 429.775 129.35 433.143C131.653 436.516 134.491 439.513 137.82 441.869C141.142 444.235 144.909 445.959 148.86 447.139C150.219 447.545 150.991 448.976 150.586 450.336C150.536 450.501 150.47 450.659 150.392 450.807L150.353 450.879V450.879C148.966 453.311 148.224 456.397 148.01 459.439C147.809 462.487 148.118 465.627 149.128 468.314C149.622 469.657 150.329 470.842 151.179 471.742C151.968 472.574 153.223 473.306 154.559 473.872C157.274 475.003 160.429 475.555 163.577 475.763C166.738 475.957 169.956 475.796 173.057 475.264C174.604 474.997 176.126 474.631 177.543 474.129C178.968 473.632 180.269 473.008 181.272 472.211C183.555 470.407 185.367 467.961 186.635 465.193C187.916 462.428 188.694 459.373 189.064 456.25C189.793 449.983 188.974 443.466 187.056 437.347C185.126 431.261 181.862 425.384 178.998 419.168C177.555 416.06 176.204 412.857 175.093 409.535C173.979 406.217 173.132 402.771 172.617 399.268C171.612 392.246 172.082 385.04 173.725 378.23L173.73 378.214C174.061 376.84 175.443 375.994 176.818 376.326C178.191 376.658 179.037 378.04 178.705 379.413Z" fill="#000072"/>
<path d="M261.217 290.383C258.719 293.486 254.452 296.793 248.903 300.046C231.745 310.131 202.338 319.75 175.285 321.307C175.285 321.307 174.969 321.334 174.417 321.32C170.854 321.255 157.482 319.493 156.173 297.187C155.339 282.914 163.386 276.188 166.284 275.846C180.374 274.197 199.781 268.359 222.718 256.644C223.343 256.322 223.954 256.019 224.559 255.716C251.026 242.7 258.81 250.069 262.801 257.768C263.314 258.754 263.793 259.944 264.228 261.278C266.799 269.253 267.522 282.566 261.217 290.383Z" fill="#FFAD40"/>
<path d="M261.217 290.384C258.719 293.487 254.452 296.794 248.904 300.047C231.745 310.133 202.338 319.751 175.285 321.309C175.285 321.309 174.97 321.335 174.417 321.321C191.8 317.213 240.271 303.822 239.318 282.613C238.825 271.502 239.904 265.592 242.842 262.502C249.035 255.981 257.043 257.426 264.228 261.279C266.799 269.255 267.522 282.567 261.217 290.384Z" fill="#FF9343"/>
<path d="M261.217 290.384C258.719 293.487 254.452 296.794 248.903 300.047C242.165 300.225 237.03 298.64 233.158 295.939C237.161 291.922 239.535 287.471 239.318 282.613C238.825 271.502 239.903 265.592 242.841 262.502C249.034 255.981 257.042 257.426 264.228 261.279C264.504 262.14 264.76 263.068 264.99 264.041C265.042 264.264 265.089 264.481 265.141 264.711C265.148 264.737 265.154 264.757 265.154 264.783C265.207 265.033 265.26 265.283 265.312 265.54C265.339 265.69 265.372 265.842 265.398 265.993C265.443 266.243 265.483 266.492 265.529 266.749C265.562 266.959 265.595 267.177 265.628 267.393C265.693 267.827 265.753 268.261 265.805 268.708C265.839 268.978 265.871 269.254 265.897 269.53C265.976 270.331 266.035 271.153 266.068 271.982C266.075 272.179 266.088 272.376 266.088 272.573C266.095 272.771 266.101 272.968 266.101 273.165C266.193 279.338 264.911 285.802 261.217 290.384Z" fill="#FF9343"/>
<path d="M261.217 290.383C258.719 293.486 254.452 296.793 248.904 300.046C219.569 300.816 220.549 268.168 224.559 255.716C251.026 242.7 258.81 250.069 262.801 257.768C266.364 264.644 268.574 281.257 261.217 290.383Z" fill="#FFF3E9"/>
<path d="M261.217 290.384C258.719 293.487 254.452 296.794 248.903 300.047C242.165 300.225 237.03 298.64 233.158 295.939C237.161 291.922 239.535 287.471 239.318 282.613C238.825 271.502 239.903 265.592 242.841 262.502C249.034 255.981 257.042 257.426 264.228 261.279C264.504 262.14 264.76 263.068 264.99 264.041C265.042 264.264 265.089 264.481 265.141 264.711C265.148 264.737 265.154 264.757 265.154 264.783C265.207 265.033 265.26 265.283 265.312 265.54C265.339 265.69 265.372 265.842 265.398 265.993C265.443 266.243 265.49 266.492 265.529 266.749C265.562 266.959 265.595 267.177 265.628 267.393C265.693 267.827 265.753 268.267 265.805 268.708C265.839 268.978 265.871 269.254 265.897 269.53C265.976 270.331 266.035 271.153 266.068 271.982C266.075 272.179 266.088 272.376 266.088 272.573C266.095 272.771 266.101 272.968 266.101 273.165C266.193 279.338 264.911 285.802 261.217 290.384Z" fill="#F9D3B7"/>
<path d="M158.279 274.431C163.117 274.316 167.98 273.623 172.788 272.652C177.599 271.677 182.361 270.379 187.06 268.875C196.467 265.875 205.594 261.989 214.555 257.771C216.81 256.746 219.012 255.605 221.24 254.52C223.504 253.39 225.799 252.244 228.156 251.232C232.856 249.183 237.75 247.394 243.033 246.49C245.675 246.065 248.437 245.873 251.267 246.248C254.081 246.592 256.992 247.662 259.369 249.47C261.764 251.267 263.508 253.673 264.789 256.06C265.118 256.639 265.406 257.316 265.707 257.952C265.99 258.596 266.206 259.238 266.457 259.882L267.06 261.818L267.549 263.763C268.131 266.364 268.471 268.991 268.602 271.641C268.684 272.964 268.652 274.296 268.625 275.627C268.529 276.961 268.45 278.296 268.224 279.63C267.804 282.291 267.141 284.967 265.952 287.513C264.779 290.045 263.013 292.465 261.057 294.325C259.108 296.221 257.013 297.816 254.869 299.293C252.721 300.762 250.521 302.115 248.275 303.353C243.793 305.857 239.165 308.002 234.476 309.967C225.075 313.84 215.395 316.936 205.529 319.284C195.664 321.625 185.608 323.256 175.429 323.863C174.019 323.946 172.806 322.871 172.722 321.46C172.638 320.049 173.714 318.837 175.125 318.753H175.126L175.136 318.752C184.949 318.168 194.732 316.587 204.341 314.305C213.952 312.019 223.4 308.994 232.512 305.241C237.052 303.338 241.523 301.263 245.781 298.883C247.919 297.706 249.987 296.431 251.969 295.076C253.946 293.717 255.842 292.259 257.482 290.662C259.142 289.06 260.353 287.366 261.307 285.365C262.245 283.367 262.804 281.136 263.163 278.865C263.358 277.729 263.424 276.563 263.511 275.402C263.531 274.23 263.564 273.059 263.489 271.883C263.374 269.535 263.069 267.182 262.557 264.896C262.041 262.605 261.327 260.41 260.289 258.501C259.21 256.491 257.908 254.771 256.283 253.555C254.665 252.336 252.729 251.588 250.582 251.321C248.445 251.035 246.154 251.169 243.863 251.542C239.262 252.322 234.666 253.97 230.206 255.922C227.962 256.886 225.776 257.975 223.563 259.083C221.299 260.203 219.06 261.377 216.764 262.438C207.637 266.791 198.163 270.459 188.426 273.332C178.694 276.168 168.643 278.327 158.278 278.27C157.218 278.264 156.363 277.401 156.369 276.341C156.374 275.3 157.207 274.458 158.239 274.432L158.279 274.431Z" fill="#000072"/>
<path d="M241.162 249.36C245.688 247.306 259.678 231.752 269.281 236.761C279.285 241.979 271.096 257.67 260.699 260.266" fill="#FFF3E9"/>
<path d="M260.697 262.826C259.55 262.826 258.506 262.05 258.216 260.886C257.873 259.515 258.707 258.126 260.079 257.783C265.365 256.463 270.562 250.593 271.2 245.221C271.538 242.363 270.495 240.281 268.098 239.031C262.458 236.089 253.721 243.041 247.939 247.64C245.559 249.533 243.68 251.028 242.219 251.692C240.932 252.274 239.415 251.706 238.831 250.419C238.247 249.132 238.817 247.615 240.104 247.031C240.989 246.629 242.902 245.107 244.752 243.635C251.57 238.21 261.876 230.013 270.464 234.492C274.75 236.728 276.871 240.858 276.282 245.823C275.393 253.318 268.68 260.911 261.318 262.749C261.111 262.802 260.902 262.826 260.697 262.826Z" fill="#000072"/>
<path d="M271.269 277.971C268.718 287.293 262.571 294.808 253.696 292.35C242.395 289.22 244.387 268.846 247.273 259.978C249.929 251.806 255.398 249.814 259.988 250.051H259.994C261.611 250.129 263.124 250.491 264.359 250.951C272.374 253.93 274.228 267.17 271.269 277.971Z" fill="#FFF3E9"/>
<path fill-rule="evenodd" clip-rule="evenodd" d="M368.839 44.0762L257.154 237.52C257.845 239.686 260.79 243.855 267.044 243.202C313.262 159.029 374.284 47.3426 373.742 46.0772C373.088 44.5518 370.201 44.1076 368.839 44.0762Z" fill="#000072"/>
<path d="M234.545 289.51C238.086 291.144 241.083 290.421 241.083 290.421C248.669 276.643 257.544 260.503 267.044 243.202C260.79 243.855 257.845 239.686 257.154 237.52L229.914 284.701C229.914 284.701 231.004 287.875 234.545 289.51Z" fill="#222222"/>
<path d="M271.269 277.97C268.718 287.292 262.571 294.807 253.696 292.349C242.395 289.219 244.387 268.845 247.273 259.977C249.929 251.805 255.398 249.813 259.988 250.05H259.994C265.655 259.695 267.988 275.393 252.645 275.203C252.645 275.203 250.902 285.064 259.37 285.472C263.583 285.676 268.081 281.638 271.269 277.97Z" fill="#F9D3B7"/>
<path d="M257.023 295.377C255.719 295.377 254.379 295.192 253.014 294.815C249.648 293.883 247.027 291.709 245.222 288.353C240.743 280.019 242.609 266.04 244.838 259.186C246.469 254.172 249.222 250.699 253.021 248.863C258.152 246.385 263.284 247.818 265.252 248.55H265.252C275.006 252.177 277.264 267.881 273.254 280.272C270.136 289.905 264.117 295.377 257.023 295.377ZM259.277 252.594C258.012 252.594 256.61 252.813 255.248 253.471C252.754 254.677 250.889 257.133 249.706 260.769C247.593 267.266 246.204 279.367 249.731 285.929C250.864 288.036 252.384 289.329 254.379 289.881C263.223 292.33 267.335 281.939 268.384 278.696C271.591 268.786 270.17 255.841 263.469 253.348C262.829 253.11 261.216 252.594 259.277 252.594Z" fill="#000072"/>
<path d="M225.525 255.356C225.525 255.356 247.047 242.456 255.895 249.764C265.348 257.571 261.786 270.289 254.77 271.391C245.948 272.777 241.648 262.502 241.648 262.502" fill="#FFF3E9"/>
<path d="M224.209 253.161C225.693 252.292 227.098 251.553 228.572 250.819C230.035 250.093 231.522 249.41 233.033 248.773C236.058 247.503 239.185 246.404 242.499 245.675C244.157 245.318 245.865 245.057 247.639 244.984C249.41 244.915 251.264 245.029 253.138 245.548C254.073 245.809 255.01 246.174 255.897 246.678C256.34 246.931 256.774 247.209 257.183 247.525C257.622 247.852 257.904 248.128 258.262 248.43C259.61 249.636 260.821 251.043 261.779 252.635C263.717 255.795 264.67 259.655 264.173 263.445C263.922 265.338 263.32 267.21 262.296 268.926C261.262 270.62 259.766 272.196 257.768 273.144L257.005 273.463C256.743 273.554 256.475 273.632 256.209 273.711C255.671 273.845 255.097 273.949 254.635 273.977C253.66 274.067 252.657 274.043 251.674 273.884C249.694 273.607 247.855 272.734 246.35 271.63C244.846 270.502 243.639 269.143 242.68 267.685C241.721 266.207 240.983 264.72 240.468 262.996C240.266 262.317 240.651 261.601 241.331 261.399C241.882 261.234 242.456 261.457 242.762 261.909L242.829 262.008C244.441 264.393 246.514 266.697 248.792 267.928C249.921 268.575 251.101 268.912 252.272 268.998C252.859 269.046 253.452 269.012 254.048 268.906C254.375 268.862 254.579 268.804 254.804 268.74L255.137 268.616C255.244 268.561 255.352 268.508 255.461 268.459C257.181 267.532 258.517 265.206 258.847 262.722C259.2 260.224 258.683 257.557 257.335 255.309C256.675 254.177 255.813 253.144 254.814 252.227C254.271 251.729 253.885 251.415 253.387 251.138C252.898 250.858 252.349 250.642 251.76 250.477C249.377 249.816 246.436 250.061 243.584 250.677C240.708 251.308 237.831 252.308 235.02 253.49C233.614 254.082 232.221 254.722 230.848 255.404C229.488 256.08 228.09 256.82 226.841 257.551L226.797 257.577C225.577 258.292 224.01 257.882 223.294 256.663C222.58 255.443 222.99 253.876 224.209 253.161L224.209 253.161Z" fill="#000072"/>
<path d="M175.501 447.501C174.39 448.151 173.353 448.633 172.25 449.116C171.155 449.573 170.047 450.002 168.917 450.363C166.661 451.09 164.348 451.679 161.99 452.034C159.635 452.386 157.245 452.629 154.847 452.605C153.644 452.644 152.449 452.547 151.246 452.489C150.045 452.418 148.856 452.234 147.654 452.107C146.245 451.96 145.224 450.697 145.372 449.289C145.521 447.881 146.783 446.859 148.191 447.007C148.266 447.015 148.339 447.026 148.411 447.04L148.624 447.082C149.68 447.289 150.733 447.559 151.802 447.723C152.872 447.873 153.943 448.068 155.026 448.13C157.189 448.358 159.373 448.338 161.554 448.22C163.739 448.1 165.913 447.756 168.056 447.282C169.131 447.047 170.188 446.747 171.237 446.422C172.263 446.085 173.34 445.691 174.246 445.271L174.318 445.238C174.958 444.941 175.719 445.22 176.016 445.86C176.294 446.462 176.061 447.171 175.501 447.501Z" fill="#000072"/>
<path d="M107.426 240.135C106.203 242.259 104.632 244.231 102.719 245.967C92.91 254.836 77.7689 254.073 68.8937 244.27C63.339 238.123 61.5635 229.886 63.4247 222.405C64.5354 217.947 66.9353 213.76 70.5968 210.446C80.4055 201.577 95.5466 202.34 104.415 212.149C111.547 220.044 112.449 231.385 107.426 240.135Z" fill="#636D7F"/>
<path d="M107.426 240.136C106.203 242.26 104.632 244.231 102.719 245.967C92.9099 254.836 77.7689 254.074 68.8936 244.271C63.3389 238.124 61.5634 229.886 63.4246 222.405C70.9781 222.682 82.4633 225.199 91.0359 236.455C95.3288 242.089 101.384 242.266 107.426 240.136Z" fill="#475363"/>
<g opacity="0.5">
<path d="M109.701 234.704C110.47 228.104 108.491 221.214 103.678 215.901C94.81 206.093 79.6697 205.33 69.8604 214.199C66.3761 217.348 64.0356 221.286 62.8655 225.493C63.5034 219.905 66.1003 214.521 70.5968 210.445C80.4057 201.576 95.5465 202.339 104.415 212.148C110.147 218.486 111.857 227.045 109.701 234.704Z" fill="white"/>
</g>
<path d="M97.2212 250.981C96.872 250.981 96.5243 250.839 96.272 250.559C95.7977 250.035 95.8385 249.226 96.3626 248.752C99.0522 246.32 97.2546 236.79 88.2178 226.797C84.0541 222.193 79.3869 218.671 75.0751 216.88C71.5601 215.421 68.5376 215.271 67.1901 216.491C66.6662 216.965 65.8564 216.925 65.3828 216.4C64.9086 215.876 64.9493 215.067 65.4734 214.593C67.6268 212.645 71.4847 212.618 76.0566 214.517C80.7105 216.45 85.7036 220.201 90.1163 225.08C100.186 236.216 102.09 247.023 98.0792 250.65C97.8342 250.872 97.5273 250.981 97.2212 250.981Z" fill="#000072"/>
<path d="M86.6864 254.072C86.2448 254.072 85.8021 254.061 85.3579 254.039C78.4585 253.692 72.1069 250.679 67.4738 245.555C62.8399 240.431 60.4786 233.809 60.8256 226.91C61.1721 220.01 64.1851 213.659 69.3092 209.025C79.8864 199.461 96.274 200.285 105.839 210.861C110.472 215.985 112.833 222.607 112.486 229.506C112.14 236.406 109.127 242.758 104.003 247.391C99.2086 251.726 93.1034 254.072 86.6864 254.072ZM86.6457 206.194C81.3764 206.194 76.0906 208.069 71.8839 211.872C67.5206 215.818 64.9548 221.227 64.6595 227.103C64.3644 232.978 66.3751 238.617 70.3209 242.98C74.2666 247.344 79.6754 249.91 85.5505 250.205C91.4253 250.496 97.0645 248.49 101.428 244.544C105.791 240.598 108.357 235.189 108.653 229.314C108.948 223.438 106.937 217.799 102.992 213.436C98.6505 208.636 92.6588 206.194 86.6457 206.194Z" fill="#000072"/>
<path d="M77.099 249.294L57.0278 266.578L45.825 276.222L33.5312 286.807L23.0321 275.19L34.4122 264.383L47.3503 252.095L64.7196 235.607C66.2117 234.259 70.183 236.238 73.6013 240.012C77.0196 243.791 78.5846 247.947 77.099 249.294Z" fill="#FC3C53"/>
<path d="M57.0275 266.578L45.8246 276.222C43.5303 270.088 38.5935 266.466 34.4119 264.382L47.3499 252.095L57.0275 266.578Z" fill="#D31E3C"/>
<path d="M33.5333 288.724C32.9941 288.724 32.4574 288.498 32.0782 288.057C31.3864 287.254 31.4766 286.041 32.28 285.35L75.7329 247.934C75.8854 247.245 75.1254 244.561 72.1778 241.301C69.2287 238.04 66.6336 237.007 65.9345 237.1L24.3505 276.582C23.5823 277.312 22.3674 277.28 21.637 276.511C20.9071 275.743 20.9386 274.528 21.7075 273.798L63.3999 234.214C66.2618 231.625 71.4245 234.745 75.0247 238.727C76.8357 240.729 78.2421 242.917 78.9854 244.888C80.2779 248.317 79.1638 250.011 78.385 250.715L34.7849 288.259C34.4223 288.571 33.9767 288.724 33.5333 288.724Z" fill="#000072"/>
<path d="M33.5325 286.803C32.2715 287.943 28.8985 286.268 25.9988 283.061C23.0986 279.854 21.7697 276.33 23.0308 275.19C24.2918 274.049 27.6642 275.726 30.5638 278.932C33.4647 282.139 34.7936 285.663 33.5325 286.803Z" fill="#D31E3C"/>
<path d="M32.5039 289.082C30.0161 289.082 26.9107 286.93 24.5754 284.347C23.0153 282.622 21.8018 280.733 21.1587 279.027C20.0005 275.956 21.0282 274.412 21.7436 273.765C22.4591 273.118 24.1001 272.251 27.0369 273.711C28.6697 274.522 30.428 275.919 31.9877 277.644C33.5473 279.368 34.7612 281.258 35.4046 282.964C36.5629 286.035 35.5352 287.579 34.8197 288.226V288.226C34.1619 288.82 33.3704 289.082 32.5039 289.082ZM24.492 276.805C24.6426 277.719 25.4828 279.627 27.4225 281.773C29.3626 283.918 31.1765 284.945 32.0716 285.186C31.9209 284.272 31.0807 282.364 29.1403 280.219C27.2006 278.073 25.3868 277.046 24.492 276.805Z" fill="#000072"/>
<path d="M83.2259 259.005C78.6437 269.09 67.0734 274.047 55.246 271.693C47.0085 270.055 48.8032 265.171 40.217 259.774C37.7385 260.984 35.0954 260.819 33.1633 259.215L32.5849 259.024L14.8408 253.226C19.5938 244.489 24.4985 240.255 27.2069 238.02C31.0398 234.851 36.5293 231.446 42.7419 229.158C51.1897 226.035 60.9851 224.97 69.7818 229.322C81.8911 235.311 88.078 248.348 83.2259 259.005Z" fill="#FFAD40"/>
<path d="M84.8758 251.675C84.8304 254.166 84.2975 256.645 83.2257 259.005C78.6435 269.09 67.0733 274.047 55.2453 271.693C47.0078 270.056 48.8031 265.171 40.217 259.774C37.7384 260.984 35.0954 260.82 33.1632 259.215L32.5848 259.024C32.5119 258.841 32.4397 258.656 32.3679 258.466C29.4485 250.61 29.0473 236.869 42.7416 229.158C51.1896 226.035 60.985 224.97 69.7815 229.322C79.209 233.983 85.0473 242.917 84.8758 251.675Z" fill="#FFF3E9"/>
<path d="M84.8759 251.673C84.8305 254.165 84.2976 256.643 83.2258 259.003C78.6436 269.089 67.0734 274.045 55.2453 271.691C47.0078 270.054 48.8031 265.17 40.2171 259.773C37.7384 260.983 35.0955 260.818 33.1632 259.213L32.5849 259.023C32.5119 258.839 32.4397 258.655 32.368 258.464C34.5835 258.326 37.9687 257.057 40.3949 251.364C40.3949 251.364 45.3054 254.44 51.413 263.138C56.548 270.442 78.46 268.385 84.8759 251.673Z" fill="#F9D3B7"/>
<path d="M33.978 258.228C34.8763 258.697 35.8283 258.802 36.7035 258.636C37.5825 258.472 38.3957 258.047 39.0976 257.472C39.5851 257.073 40.2352 257.007 40.7739 257.246L41.5807 257.606C43.0528 258.537 44.486 259.6 45.7951 260.83C47.1047 262.05 48.2634 263.459 49.2474 264.751C50.2411 266.052 51.0601 267.08 51.9935 267.726C52.9161 268.395 54.1048 268.833 55.4778 269.124C61.1969 270.343 67.3934 269.674 72.4414 266.916C74.9566 265.541 77.1779 263.67 78.858 261.392C79.7013 260.26 80.428 259.028 80.9854 257.735C81.5394 256.465 81.9252 255.129 82.1357 253.761C82.5689 251.021 82.2316 248.16 81.3245 245.463C80.4172 242.76 78.897 240.233 76.9963 238.03C75.0909 235.826 72.7863 233.946 70.2418 232.474C67.6896 230.987 64.9533 229.98 62.0659 229.438C56.286 228.374 50.1452 229.273 44.4035 231.275C41.5277 232.287 38.7234 233.562 36.0528 235.076C33.3785 236.588 30.8371 238.307 28.5031 240.265C26.1275 242.229 24.0252 244.369 22.1268 246.764C20.2369 249.153 18.5722 251.742 17.0883 254.449L17.0814 254.462C16.4013 255.701 14.8465 256.155 13.6066 255.475C12.3674 254.796 11.9137 253.241 12.5925 252.002C14.1984 249.072 16.0186 246.235 18.1178 243.581C20.21 240.934 22.6386 238.469 25.2202 236.339C27.8113 234.165 30.6176 232.268 33.5376 230.618C36.4597 228.963 39.5281 227.564 42.7149 226.442C45.9063 225.339 49.2212 224.502 52.6357 224.122C56.0426 223.721 59.5486 223.785 62.9934 224.405C64.7137 224.725 66.4099 225.198 68.0606 225.801C69.7158 226.401 71.2993 227.183 72.8061 228.044C75.8221 229.79 78.5701 232.025 80.8695 234.684C83.1614 237.341 85.027 240.422 86.171 243.818C87.313 247.201 87.7647 250.906 87.1965 254.53C86.9194 256.337 86.4057 258.113 85.6744 259.787C84.9559 261.446 84.0396 263.002 82.9648 264.447C80.8247 267.346 78.0103 269.708 74.8892 271.411C71.7587 273.108 68.3256 274.168 64.8405 274.591C61.3485 275.024 57.8347 274.854 54.3977 274.127C52.6395 273.754 50.72 273.114 49.0258 271.896C48.1877 271.299 47.4371 270.592 46.8217 269.892C46.2005 269.191 45.6803 268.506 45.1927 267.876C44.2292 266.613 43.3328 265.537 42.2912 264.561C41.2559 263.59 40.0986 262.727 38.8567 261.94L41.3386 262.074C39.7967 262.587 38.1051 262.777 36.4831 262.468C34.8625 262.173 33.3628 261.336 32.3429 260.197C31.8676 259.665 31.9129 258.848 32.4446 258.372C32.8573 258.003 33.4402 257.948 33.9034 258.188L33.978 258.228Z" fill="#000072"/>
<path d="M33.978 258.228C34.8763 258.697 35.8283 258.802 36.7035 258.636C37.5825 258.472 38.3957 258.047 39.0976 257.472C39.5851 257.073 40.2352 257.007 40.7739 257.246L41.5807 257.606C43.0528 258.537 44.486 259.6 45.7951 260.83C47.1047 262.05 48.2634 263.459 49.2474 264.751C50.2411 266.052 51.0601 267.08 51.9935 267.726C52.9161 268.395 54.1048 268.833 55.4778 269.124C61.1969 270.343 67.3934 269.674 72.4414 266.916C74.9566 265.541 77.1779 263.67 78.858 261.392C79.7013 260.26 80.428 259.028 80.9854 257.735C81.5394 256.465 81.9252 255.129 82.1357 253.761C82.5689 251.021 82.2316 248.16 81.3245 245.463C80.4172 242.76 78.897 240.233 76.9963 238.03C75.0909 235.826 72.7863 233.946 70.2418 232.474C67.6896 230.987 64.9533 229.98 62.0659 229.438C56.286 228.374 50.1452 229.273 44.4035 231.275C41.5277 232.287 38.7234 233.562 36.0528 235.076C33.3785 236.588 30.8371 238.307 28.5031 240.265C26.1275 242.229 24.0252 244.369 22.1268 246.764C20.2369 249.153 18.5722 251.742 17.0883 254.449L17.0814 254.462C16.4013 255.701 14.8465 256.155 13.6066 255.475C12.3674 254.796 11.9137 253.241 12.5925 252.002C14.1984 249.072 16.0186 246.235 18.1178 243.581C20.21 240.934 22.6386 238.469 25.2202 236.339C27.8113 234.165 30.6176 232.268 33.5376 230.618C36.4597 228.963 39.5281 227.564 42.7149 226.442C45.9063 225.339 49.2212 224.502 52.6357 224.122C56.0426 223.721 59.5486 223.785 62.9934 224.405C64.7137 224.725 66.4099 225.198 68.0606 225.801C69.7158 226.401 71.2993 227.183 72.8061 228.044C75.8221 229.79 78.5701 232.025 80.8695 234.684C83.1614 237.341 85.027 240.422 86.171 243.818C87.313 247.201 87.7647 250.906 87.1965 254.53C86.9194 256.337 86.4057 258.113 85.6744 259.787C84.9559 261.446 84.0396 263.002 82.9648 264.447C80.8247 267.346 78.0103 269.708 74.8892 271.411C71.7587 273.108 68.3256 274.168 64.8405 274.591C61.3485 275.024 57.8347 274.854 54.3977 274.127C52.6395 273.754 50.72 273.114 49.0258 271.896C48.1877 271.299 47.4371 270.592 46.8217 269.892C46.2005 269.191 45.6803 268.506 45.1927 267.876C44.2292 266.613 43.3328 265.537 42.2912 264.561C41.2559 263.59 40.0986 262.727 38.8567 261.94L41.3386 262.074C39.7967 262.587 38.1051 262.777 36.4831 262.468C34.8625 262.173 33.3628 261.336 32.3429 260.197C31.8676 259.665 31.9129 258.848 32.4446 258.372C32.8573 258.003 33.4402 257.948 33.9034 258.188L33.978 258.228Z" fill="#000072"/>
<path d="M171.087 465.405C171.177 466.867 171.493 468.475 172.023 469.823C172.553 471.188 173.358 472.34 174.326 472.929C175.287 473.518 176.422 473.654 177.72 473.431C179.004 473.227 180.37 472.68 181.695 471.992C182.952 471.339 184.501 471.829 185.153 473.087C185.806 474.344 185.316 475.893 184.058 476.546C183.961 476.596 183.862 476.64 183.762 476.677L183.732 476.688C181.994 477.315 180.14 477.832 178.084 477.894C177.072 477.944 175.987 477.829 174.93 477.527C173.873 477.228 172.839 476.695 171.994 475.978C171.144 475.263 170.49 474.395 170.008 473.504C169.525 472.611 169.2 471.69 168.969 470.777C168.741 469.862 168.609 468.952 168.539 468.049C168.471 467.13 168.457 466.277 168.53 465.305C168.582 464.6 169.196 464.072 169.901 464.125C170.546 464.173 171.044 464.693 171.082 465.322L171.087 465.405Z" fill="#000072"/>
<path d="M158.061 466.098C157.795 467.544 157.887 469.172 158.362 470.591C158.823 472.021 159.625 473.257 160.689 474.124C161.75 475 163.076 475.508 164.508 475.749C165.928 476.036 167.51 475.89 169.048 475.747L169.23 475.73C170.642 475.598 171.893 476.636 172.024 478.048C172.156 479.46 171.118 480.71 169.706 480.842C169.607 480.852 169.506 480.854 169.408 480.852C167.439 480.806 165.45 480.741 163.45 480.101C161.475 479.515 159.509 478.474 158.029 476.891C156.54 475.323 155.625 473.33 155.253 471.345C154.873 469.348 154.983 467.344 155.604 465.383C155.817 464.71 156.535 464.338 157.209 464.552C157.83 464.749 158.196 465.376 158.079 466.002L158.061 466.098Z" fill="#000072"/>
<path d="M61.0815 446.195C61.2971 446.087 61.5159 445.984 61.7348 445.886C61.8544 445.831 61.9408 445.8 62.0221 445.774L62.2773 445.685L62.7867 445.513L63.2633 445.381C63.9051 445.191 64.5174 445.072 65.1392 444.929C66.3721 444.693 67.5985 444.496 68.825 444.37C71.278 444.108 73.733 444.04 76.1789 444.157C78.6243 444.294 81.0542 444.632 83.4388 445.16C85.8246 445.701 88.1388 446.514 90.3716 447.48C91.0204 447.761 91.3186 448.514 91.0377 449.163C90.7741 449.772 90.0921 450.073 89.4721 449.872L89.4139 449.854C87.2699 449.153 85.0875 448.602 82.8604 448.306C80.6325 448.023 78.3869 447.918 76.1476 447.995C73.909 448.093 71.6793 448.361 69.5008 448.798C68.4099 449.009 67.3409 449.287 66.2941 449.587C65.7873 449.755 65.2596 449.908 64.7919 450.098L64.4316 450.233L64.1212 450.373L63.9663 450.443C63.9101 450.467 63.8601 450.489 63.8499 450.503C63.807 450.535 63.7622 450.561 63.7162 450.583L63.2939 450.78C62.0201 451.373 60.5056 450.822 59.9113 449.547C59.3279 448.296 59.8538 446.809 61.0815 446.195Z" fill="#000072"/>
<path d="M78.5841 247.461C79.9258 248.741 81.025 250.231 81.8714 251.895C82.716 253.555 83.2765 255.415 83.4191 257.369C83.5637 259.316 83.2777 261.353 82.5445 263.202C81.8228 265.058 80.7339 266.71 79.4998 268.192C78.5925 269.28 76.9739 269.427 75.8855 268.52C74.7972 267.612 74.6507 265.994 75.558 264.906C75.6232 264.828 75.6917 264.754 75.7645 264.685L75.8208 264.632C76.8636 263.657 77.7881 262.586 78.4522 261.382C79.1253 260.181 79.4971 258.844 79.5814 257.442C79.7618 254.639 78.6275 251.58 76.7355 249.231L76.7028 249.19C76.2588 248.639 76.3458 247.834 76.8966 247.39C77.4037 246.982 78.126 247.023 78.5841 247.461Z" fill="#000072"/>
<path d="M67.2151 255.137C68.7749 256.526 69.8121 258.242 70.5152 260.125C71.1978 262.003 71.5204 264.128 71.0776 266.3C70.8581 267.379 70.4397 268.45 69.837 269.411C69.2369 270.374 68.462 271.218 67.6079 271.917C65.8818 273.309 63.9117 274.116 61.9803 274.668C60.6188 275.058 59.1997 274.27 58.8094 272.909C58.4204 271.548 59.2073 270.128 60.5688 269.739C60.6673 269.71 60.7805 269.686 60.8798 269.67C62.384 269.435 63.812 269.016 64.9514 268.311C66.0838 267.605 66.9227 266.627 67.3571 265.353C67.8005 264.087 67.8037 262.552 67.4564 261.062C67.1134 259.577 66.4179 258.085 65.448 256.988L65.4057 256.94C64.9368 256.41 64.9873 255.602 65.5164 255.134C66.0072 254.699 66.7385 254.711 67.2151 255.137Z" fill="#000072"/>
<path d="M60.174 273.169C60.0016 282.991 56.4159 303.802 43.452 308.468C45.3163 308.903 47.3764 309.224 49.5842 309.342C63.967 296.658 64.6571 279.717 63.2043 272.833C62.2296 272.98 61.2195 273.094 60.174 273.169Z" fill="#00A74A"/>
<path fill-rule="evenodd" clip-rule="evenodd" d="M117.461 275.918C133.134 279.371 149.433 278.673 158.545 277.255L165.627 275.918C143.108 284.828 125.882 286.488 113.054 284.412L117.461 275.918ZM116.096 275.607C106.171 273.259 96.8623 270.015 89.6272 263.362L81.1828 265.542C83.5935 272.327 91.7602 278.148 105.154 282.516C107.424 275.954 112.758 275.097 116.096 275.607Z" fill="#00A74A"/>
<path d="M113.054 284.412L117.461 275.918C117.006 275.818 116.551 275.714 116.096 275.607C112.758 275.097 107.424 275.954 105.154 282.516C107.577 283.306 110.207 283.951 113.054 284.412Z" fill="white"/>
<path d="M113.054 284.412C110.207 283.951 107.577 283.306 105.154 282.516C97.7084 297.326 84.724 334.098 92.3512 362.709C96.3185 363.296 100.581 363.759 105.154 364.073C96.4003 331.541 106.773 297.41 113.054 284.412Z" fill="#00A74A"/>
<path d="M179.068 358.703C179.49 348.642 179.028 334.643 175.706 321.656C177.878 321.614 181.406 321.427 185.24 321.003C179.247 317.804 168.351 304.043 172.71 274.582L165.627 275.918C143.108 284.828 125.882 286.488 113.054 284.412C106.773 297.41 96.4003 331.541 105.154 364.073C124.084 365.375 148.343 364.141 179.068 358.703Z" fill="white"/>
<path d="M57.4838 308.853C54.0097 313.794 48.8947 324.533 45.7414 337.455C48.4117 345.993 61.4136 358.134 92.3512 362.709C84.724 334.098 97.7084 297.326 105.154 282.516C91.7602 278.148 83.5935 272.327 81.1828 265.542C79.0189 268.715 73.716 271.242 63.2043 272.833C64.6571 279.717 63.967 296.658 49.5842 309.342C52.0548 309.474 54.7105 309.353 57.4838 308.853Z" fill="white"/>
<path d="M117.685 418.904C119.319 425.895 125.693 440.75 138.115 444.237C150.464 443.147 176.523 436.555 181.971 418.904C170.421 407.136 174.616 380.949 178.158 369.326C86.9032 410.187 42.3181 371.415 43.452 350.258C41.9312 363.922 43.3895 378.584 51.2186 390.841C60.0658 404.692 77.0484 415.472 107.061 418.27C110.435 418.584 113.974 418.798 117.685 418.904Z" fill="#00A74A"/>
<path d="M51.2186 390.841C52.399 401.194 55.1957 423.207 56.939 428.438C62.5687 433.25 80.4745 441.622 107.061 436.61C106.516 432.555 105.753 423.211 107.061 418.27C77.0484 415.472 60.0658 404.692 51.2186 390.841Z" fill="#00A74A"/>
<path d="M178.158 369.326C178.52 366.845 178.881 363.161 179.068 358.703C148.343 364.141 124.084 365.375 105.154 364.073C100.581 363.759 96.3185 363.296 92.3512 362.709C61.4136 358.134 48.4117 345.993 45.7414 337.455C44.744 341.543 43.9429 345.849 43.452 350.258C42.3181 371.415 86.9032 410.187 178.158 369.326Z" fill="#BED8C9"/>
<path d="M198.315 318.387C191.051 311.033 178.702 291.42 187.419 271.807L180.201 273.169C177.068 282.037 174.78 303.868 190.688 320.248C193.446 319.778 196.113 319.169 198.315 318.387Z" fill="#00A74A"/>
<path d="M54.215 273.169C54.3058 282.794 50.4559 302.588 34.3297 304.767C35.976 305.896 39.2061 307.478 43.452 308.468C56.4159 303.802 60.0016 282.991 60.174 273.169C58.3009 273.303 56.3144 273.313 54.215 273.169Z" fill="#00A74A"/>
<path d="M190.688 320.248C174.78 303.868 177.068 282.037 180.201 273.169L172.71 274.582C168.351 304.043 179.247 317.804 185.24 321.003C187.025 320.806 188.876 320.557 190.688 320.248Z" fill="#00A74A"/>
<path d="M145.992 300.467C146.643 297.666 145.399 296.756 143.978 296.291C142.557 295.826 140.508 296.252 139.769 298.261C139.588 296.128 137.725 295.174 136.232 295.246C134.738 295.318 133.451 295.886 133.337 298.76C133.254 300.842 136.253 305.088 138 307.315C133.915 303.328 130.46 302.465 129.243 302.532C126.372 302.698 125.85 304.148 125.805 305.642C125.76 307.137 126.747 308.982 128.882 309.125C126.887 309.9 126.497 311.956 126.988 313.369C127.478 314.781 128.386 315.856 131.175 315.155C133.324 314.615 136.783 310.097 138.314 307.9C137.574 310.195 136.663 316.178 138.944 321.733L140.746 321.977C139.729 320.16 137.862 314.867 138.546 308.181C139.459 310.74 141.567 315.895 143.471 316.972C145.975 318.387 147.136 317.592 147.983 316.36C148.83 315.128 148.999 313.042 147.281 311.766C149.378 312.194 150.819 310.676 151.172 309.223C151.524 307.77 151.405 306.234 148.68 305.313C146.625 304.618 141.381 306.577 138.836 307.623C141.061 306.014 145.499 302.585 145.992 300.467Z" fill="#00A842"/>
<path d="M115.918 326.28C117.832 324.638 122.126 321.308 123.994 321.122C126.329 320.891 129.006 322.463 131.723 322.868C134.441 323.274 141.417 323.083 140.92 326.764C140.423 330.446 135.056 328.55 131.066 327.738M143.514 326.06L151.248 323.434C152.125 323.201 153.977 323.06 154.364 324.362C154.847 325.989 154.966 326.552 153.599 327.421C152.506 328.117 144.149 331.287 140.107 332.785C138.698 333.102 134.914 333.537 131.056 332.735C127.197 331.933 125.465 331.629 125.082 331.577C124.457 331.48 122.933 331.467 121.836 332.193C120.738 332.92 119.684 333.673 119.294 333.959" stroke="#00A842" stroke-width="1.08346" stroke-linecap="round"/>
<path d="M49.8566 292.842C48.1314 296.741 42.7742 304.494 31.6057 305.311C35.6866 306.469 44.8191 308.987 49.0394 309.125C56.6666 303.949 60.8435 294.237 61.8423 289.948C58.1749 291.207 54.0684 292.303 49.8566 292.842Z" fill="#019543"/>
<path d="M61.8423 289.948C60.8435 294.237 56.6666 303.949 49.0394 309.125C52.8068 309.248 55.7498 309.142 59.3907 308.697L74.1003 284.593C71.6656 285.899 67.2273 288.099 61.8423 289.948Z" fill="#F0EFF5"/>
<path d="M51.9188 402.383C70.853 425.999 99.2181 421.717 100.796 437.699L107.718 436.609C107.436 431.153 107.148 424.321 107.718 419.176C73.8116 415.907 55.7396 396.385 50.9418 387.032C51.0498 392.148 51.396 397.315 51.9188 402.383Z" fill="#019543"/>
<path d="M177.54 371.767C176.915 375.666 176.074 379.761 174.996 384.087C166.942 416.36 115.571 428.227 75.0408 410.463C62.0829 404.783 45.8057 389.873 44.5294 363.207C50.1642 381.162 64.3421 393.352 74.8879 398.356C109.692 414.87 166.87 403.402 177.54 371.767Z" fill="#019543"/>
<path d="M177.678 409.208C172.496 398.357 131.735 409.688 121.681 423.911C120.067 419.33 119.15 414.606 118.779 410.108L129.39 404.33C147.818 401.101 164.484 392.93 173.096 380.517L176.212 378.821C176.212 378.828 176.212 378.834 176.205 378.841C176.087 379.34 175.975 379.834 175.877 380.32C175.837 380.51 175.798 380.695 175.758 380.885C175.752 380.906 175.752 380.925 175.745 380.945C175.745 380.958 175.739 380.978 175.739 380.997C173.503 392.167 174.944 401.226 177.678 409.208Z" fill="#019543"/>
<path d="M76.9717 478.232C71.5337 478.232 66.0018 477.682 60.979 476.595C57.264 475.791 54.2989 473.753 52.4045 470.699C50.3635 467.408 49.7471 463.058 50.7561 459.061C52.1654 453.476 55.9129 449.859 59.21 447.469C54.3481 435.516 48.4182 408.901 48.3544 384.035L53.6973 393.024C54.9459 415.703 60.4618 438.16 64.7185 447.311C65.2574 448.47 64.8596 449.848 63.786 450.541C60.6706 452.552 56.9385 455.48 55.7192 460.313C55.0426 462.992 55.4298 465.866 56.7542 468.001C57.9161 469.873 59.7018 471.082 62.0616 471.592C70.4249 473.403 80.293 473.616 88.4592 472.162C96.9681 470.648 104.641 462.13 105.565 453.174C105.875 450.161 105.593 445.458 105.294 440.479L105.294 440.478C104.863 433.308 104.372 425.129 105.294 417.988L110.247 419.481C109.547 425.917 110.003 433.512 110.403 440.169L110.403 440.172C110.729 445.591 111.009 450.271 110.656 453.698C109.495 464.958 100.14 475.282 89.3559 477.201C85.4831 477.891 81.2563 478.232 76.9717 478.232Z" fill="#000072"/>
<path d="M15.8073 298.477C24.0468 307.449 35.8201 312.039 50.3113 312.039C51.8543 312.039 53.4283 311.987 55.0323 311.882L58.3011 306.419C44.8171 307.955 29.8597 306.211 19.5772 295.015C13.1116 287.974 10.3321 279.915 11.3159 271.059C13.0037 255.872 25.285 242.641 28.5116 240.368L25.7059 236.086C25.6799 236.103 25.6543 236.12 25.6294 236.137C21.3016 239.14 8.12492 253.426 6.22857 270.493C5.07413 280.884 8.29667 290.299 15.8073 298.477Z" fill="#000072"/>
<path d="M117.511 421.388C109.366 421.603 101.207 420.851 93.2418 419.151C89.2584 418.307 85.3263 417.215 81.4694 415.897C79.5386 415.242 77.6351 414.507 75.7471 413.737C73.8904 412.97 71.9205 412.089 70.0989 411.069C62.7591 407.013 56.4622 401.215 51.7481 394.319C49.395 390.871 47.4371 387.156 45.9151 383.278C44.4051 379.396 43.3272 375.36 42.6515 371.276C41.2958 363.095 41.5606 354.774 42.8479 346.727C43.5006 342.7 44.3962 338.726 45.5076 334.826C46.5857 330.935 47.9632 327.038 49.5326 323.308C52.6771 315.819 56.5384 308.728 60.8321 301.961C62.983 298.579 65.2653 295.293 67.639 292.083C70.0152 288.874 72.4829 285.74 75.083 282.714C75.5449 282.176 76.3555 282.113 76.8942 282.575C77.3735 282.985 77.4746 283.673 77.1674 284.2C73.152 291.053 68.9486 297.724 65.0048 304.509C61.0552 311.281 57.2741 318.141 54.3303 325.304C52.8466 328.889 51.5926 332.489 50.5703 336.245C49.5286 339.975 48.6982 343.754 48.1019 347.557C46.9247 355.156 46.7365 362.897 48.0162 370.374C49.2805 377.842 52.0495 385.012 56.287 391.218C60.5129 397.418 66.2013 402.649 72.7439 406.269C74.3836 407.186 76.0382 407.927 77.8438 408.677C79.6257 409.404 81.4215 410.101 83.2455 410.721C86.8899 411.969 90.6116 413.005 94.3838 413.807C101.926 415.417 109.664 416.164 117.372 415.975C118.021 415.958 118.67 415.936 119.319 415.906L120.681 421.251C119.625 421.313 118.568 421.359 117.511 421.388Z" fill="#000072"/>
<path d="M180.723 337.203C181.231 341.212 181.578 345.255 181.69 349.309C181.789 353.364 181.683 357.422 181.394 361.463L181.112 364.487C181.028 365.496 180.906 366.5 180.768 367.502L180.371 370.509L179.879 373.498L179.631 374.992L179.336 376.477L178.747 379.444C178.538 380.43 178.298 381.408 178.074 382.39L177.733 383.862C177.622 384.35 177.509 384.839 177.36 385.363C176.724 387.759 175.843 390.091 174.749 392.314L173.644 378.35L174.219 375.486L174.507 374.054L174.749 372.616L175.23 369.739L175.619 366.851C175.754 365.889 175.874 364.926 175.956 363.96L176.235 361.063C176.52 357.195 176.631 353.32 176.547 349.447C176.448 345.575 176.13 341.707 175.645 337.851C174.982 332.529 173.946 327.241 172.797 321.928H178.033C179.105 326.953 180.078 332.039 180.723 337.203Z" fill="#000072"/>
<path d="M178.705 379.416C177.19 385.715 176.782 392.202 177.684 398.544C178.151 401.713 178.916 404.843 179.947 407.917C180.976 410.993 182.245 414.013 183.643 417.021C185.034 420.033 186.549 423.034 188.006 426.129C189.462 429.221 190.867 432.418 191.938 435.815C194.041 442.547 194.972 449.706 194.147 456.857C193.721 460.423 192.832 463.99 191.278 467.35C189.741 470.704 187.46 473.85 184.441 476.234C182.792 477.531 180.988 478.347 179.24 478.962C177.476 479.584 175.707 480.003 173.933 480.31C170.386 480.917 166.824 481.091 163.255 480.875C159.69 480.628 156.098 480.048 152.57 478.592C150.821 477.832 149.06 476.9 147.493 475.297C146.022 473.745 145.019 471.945 144.341 470.132C142.99 466.486 142.676 462.754 142.904 459.09C143.035 457.256 143.316 455.432 143.794 453.627C144.272 451.824 144.941 450.036 145.925 448.314L145.926 448.314L147.418 452.054C142.982 450.741 138.695 448.755 134.859 446.068C131.021 443.39 127.636 440.039 124.937 436.229C122.238 432.413 120.271 428.138 119.016 423.723C117.773 419.305 117.204 414.727 117.502 410.211C117.549 409.498 118.165 408.958 118.878 409.005C119.455 409.044 119.917 409.452 120.049 409.985L120.052 410C121.088 414.205 122.202 418.28 123.697 422.179C125.181 426.074 127.034 429.778 129.35 433.146C131.653 436.519 134.491 439.516 137.82 441.871C141.142 444.238 144.909 445.962 148.86 447.141C150.219 447.548 150.991 448.979 150.586 450.339C150.536 450.504 150.47 450.662 150.392 450.81L150.353 450.882V450.882C148.966 453.313 148.224 456.4 148.01 459.441C147.809 462.49 148.118 465.63 149.128 468.317C149.622 469.66 150.329 470.845 151.18 471.745C151.968 472.577 153.223 473.308 154.559 473.875C157.274 475.006 160.429 475.558 163.577 475.766C166.738 475.96 169.956 475.799 173.057 475.267C174.605 475 176.126 474.634 177.543 474.132C178.968 473.635 180.269 473.011 181.272 472.214C183.555 470.409 185.367 467.964 186.635 465.196C187.916 462.431 188.694 459.376 189.064 456.253C189.793 449.986 188.974 443.469 187.056 437.35C185.126 431.264 181.862 425.387 178.998 419.171C177.555 416.063 176.204 412.86 175.093 409.538C173.979 406.219 173.132 402.774 172.617 399.271C171.612 392.249 172.082 385.043 173.725 378.233L173.73 378.217C174.061 376.843 175.443 375.997 176.818 376.329C178.191 376.661 179.037 378.043 178.705 379.416Z" fill="#000072"/>
<path d="M158.279 274.432C163.117 274.316 167.98 273.624 172.788 272.653C177.599 271.678 182.361 270.38 187.06 268.876C196.467 265.876 205.594 261.989 214.555 257.772C216.809 256.746 219.012 255.606 221.24 254.52L221.295 254.493C223.541 253.373 225.818 252.236 228.156 251.232L230.206 255.923C227.962 256.887 225.776 257.976 223.563 259.084C221.299 260.204 219.06 261.378 216.764 262.438C207.637 266.792 198.163 270.459 188.426 273.332C178.694 276.168 168.643 278.327 158.278 278.271C157.218 278.265 156.363 277.401 156.369 276.341C156.374 275.301 157.207 274.458 158.239 274.433L158.279 274.432Z" fill="#000072"/>
<path d="M261.057 294.325C259.108 296.221 257.013 297.817 254.869 299.294C252.72 300.763 250.521 302.116 248.274 303.354C243.793 305.857 239.165 308.003 234.476 309.968C225.075 313.84 215.395 316.937 205.529 319.284C195.664 321.626 185.608 323.257 175.429 323.863C174.019 323.947 172.806 322.872 172.722 321.46C172.638 320.05 173.714 318.838 175.125 318.753H175.125L175.136 318.753C184.949 318.169 194.732 316.588 204.341 314.306C213.952 312.02 223.4 308.994 232.512 305.241C237.052 303.339 241.523 301.264 245.781 298.884C247.919 297.707 249.987 296.432 251.969 295.076C252.964 294.393 253.938 293.684 254.869 292.945L261.057 294.325Z" fill="#000072"/>
<path d="M33.9779 258.23C34.8762 258.699 35.8282 258.804 36.7034 258.638C37.5824 258.474 38.3956 258.049 39.0976 257.474C39.585 257.075 40.2352 257.009 40.7738 257.248L41.5807 257.608C43.0528 258.539 44.486 259.602 45.795 260.831C47.1046 262.052 48.2633 263.461 49.2474 264.753C50.241 266.054 51.06 267.082 51.9934 267.728C52.9161 268.397 54.1047 268.835 55.4777 269.126C61.1969 270.345 67.3933 269.675 72.4414 266.918C74.9565 265.543 77.1778 263.672 78.8579 261.394C79.7012 260.262 80.4279 259.03 80.9853 257.737C81.5393 256.467 81.9251 255.131 82.1356 253.763C82.5688 251.023 82.2315 248.162 81.3244 245.465C80.4171 242.762 78.897 240.235 76.9962 238.032C75.0909 235.827 72.7863 233.948 70.2418 232.476C67.6895 230.989 64.9533 229.982 62.0659 229.44C56.2859 228.376 50.1451 229.275 44.4034 231.277C41.5276 232.289 38.7234 233.564 36.0527 235.078C33.3784 236.59 30.837 238.309 28.503 240.267C26.1274 242.231 24.0251 244.371 22.1268 246.766C20.2368 249.155 18.5721 251.744 17.0883 254.451L17.0813 254.464C16.4012 255.703 14.8464 256.157 13.6066 255.477C12.3673 254.798 11.9136 253.243 12.5924 252.003C14.1983 249.074 16.0185 246.237 18.1178 243.583C20.2099 240.936 22.6386 238.471 25.2201 236.341C27.8113 234.167 30.6175 232.27 33.5376 230.62C36.4596 228.965 39.528 227.566 42.7149 226.444C45.9063 225.341 49.2211 224.504 52.6356 224.124C56.0425 223.723 59.5486 223.787 62.9934 224.407C64.7137 224.727 66.4099 225.2 68.0606 225.803C69.7157 226.403 71.2992 227.185 72.806 228.046C75.822 229.792 78.57 232.027 80.8695 234.686C83.1613 237.343 85.027 240.424 86.1709 243.82C87.3129 247.203 87.7647 250.908 87.1965 254.532C86.9194 256.339 86.4056 258.115 85.6743 259.789C84.9558 261.448 84.0396 263.004 82.9648 264.449C80.8246 267.348 78.0102 269.71 74.8892 271.413C71.7586 273.11 68.3255 274.17 64.8405 274.593C61.3484 275.026 57.8346 274.855 54.3976 274.129C52.6394 273.756 50.72 273.116 49.0258 271.898C48.1876 271.301 47.4371 270.594 46.8216 269.894C46.2004 269.193 45.6802 268.508 45.1926 267.878C44.2291 266.615 43.3328 265.539 42.2911 264.563C41.2558 263.592 40.0985 262.729 38.8567 261.942L41.3385 262.076C39.7966 262.589 38.105 262.779 36.483 262.47C34.8624 262.175 33.3628 261.338 32.3429 260.199C31.8676 259.667 31.9128 258.85 32.4445 258.374C32.8572 258.005 33.4401 257.95 33.9033 258.19L33.9779 258.23Z" fill="#000072"/>
</g>
<defs>
<clipPath id="clip0_2105_2954">
<rect width="374" height="481" fill="white"/>
</clipPath>
</defs>
</svg>
